<?xml version="1.0" standalone="no"?>
<!DOCTYPE svg PUBLIC "-//W3C//DTD SVG 1.1//EN" "http://www.w3.org/Graphics/SVG/1.1/DTD/svg11.dtd" >
<svg xmlns="http://www.w3.org/2000/svg">
<metadata></metadata>
<defs>
<font id="playfair_display_scbold" horiz-adv-x="719" >
<font-face units-per-em="2048" ascent="1638" descent="-410" />
<missing-glyph horiz-adv-x="348" />
<glyph horiz-adv-x="2048" />
<glyph horiz-adv-x="2048" />
<glyph horiz-adv-x="682" />
<glyph unicode="&#xd;" horiz-adv-x="0" />
<glyph unicode=" "  horiz-adv-x="348" />
<glyph unicode="&#x09;" horiz-adv-x="348" />
<glyph unicode="&#xa0;" horiz-adv-x="348" />
<glyph unicode="!" horiz-adv-x="430" d="M88 94q0 53 34.5 84.5t92.5 31.5q59 0 93.5 -31.5t34.5 -84.5t-34.5 -84t-93.5 -31q-58 0 -92.5 31t-34.5 84zM93 1023q0 45 15.5 78t43.5 50.5t63 17.5q33 0 61 -17.5t45 -51t17 -77.5q0 -78 -33 -235t-52.5 -263.5t-24.5 -231.5h-27q-2 107 -18.5 208t-53 272.5 t-36.5 249.5z" />
<glyph unicode="&#x22;" horiz-adv-x="551" d="M63 991q0 46 26.5 73t67.5 27t67.5 -26.5t26.5 -71.5q0 -37 -8.5 -68t-33.5 -98t-42 -128h-20q-16 54 -40.5 119t-34 98.5t-9.5 74.5zM303 991q0 46 26.5 73t67.5 27t67.5 -26.5t26.5 -71.5q0 -37 -8.5 -68t-33.5 -98t-42 -128h-20q-16 54 -40.5 119t-34 98.5t-9.5 74.5z " />
<glyph unicode="#" horiz-adv-x="927" d="M60 369l6 30h220l48 250h-219l5 30h220l43 221h29l-42 -221h250l42 221h30l-42 -221h219l-5 -30h-220l-48 -250h219l-6 -30h-219l-42 -218h-30l42 218h-250l-42 -218h-30l42 218h-220zM316 399h250l48 250h-250z" />
<glyph unicode="$" horiz-adv-x="858" d="M74 -10q7 90 7 403h34q9 -120 35.5 -198t75.5 -121.5t127 -55.5v440l-5 3q-87 55 -141.5 100t-89.5 105t-35 138q0 80 36 137.5t97 90t138 43.5v181h30v-179q16 1 34 1q44 0 81 -6v184h30v-189q52 -13 107 -47q37 -21 51 -21t21.5 15.5t11.5 49.5h34q-7 -100 -7 -341h-34 q-16 125 -59 204t-125 106v-411l24 -15q84 -54 136.5 -98.5t84 -103t31.5 -134.5q0 -80 -35.5 -139.5t-97.5 -96t-143 -49.5v-183h-30v179q-32 -3 -64 -3q-27 0 -51 2v-178h-30v182q-47 6 -77 17t-71 31q-47 22 -63 22q-14 0 -21 -15.5t-11 -49.5h-36zM261 904 q0 -44 19.5 -78.5t72.5 -79.5v285q-45 -16 -68.5 -49t-23.5 -78zM383 14q21 -2 45 -2q38 0 70 6v337q-44 33 -115 82v-423zM383 723q43 -33 115 -81v398q-27 5 -57 5q-31 0 -58 -5v-317zM528 26q101 33 101 140q0 30 -8.5 54.5t-30 50.5t-62.5 60v-305z" />
<glyph unicode="%" horiz-adv-x="1088" d="M50 886q0 74 31.5 131.5t87 89t124.5 31.5q72 0 126.5 -29t85 -84t30.5 -131q0 -74 -31.5 -131t-86.5 -88.5t-124 -31.5q-72 0 -127 29t-85.5 84t-30.5 130zM99 -63l875 1295l28 -19l-874 -1295zM193 888q0 -107 27 -162.5t76 -55.5q96 0 96 221q0 108 -26.5 164 t-75.5 56q-97 0 -97 -223zM552 223q0 73 31.5 130t87 89t125.5 32q71 0 126 -29.5t85 -84t30 -130.5q0 -74 -31 -131t-86.5 -88.5t-123.5 -31.5q-73 0 -128 29t-85.5 84t-30.5 131zM695 224q0 -106 27.5 -162t76.5 -56q95 0 95 221q0 109 -26 164.5t-76 55.5q-97 0 -97 -223 z" />
<glyph unicode="&#x26;" horiz-adv-x="1342" d="M61 351q0 102 54 171t122 105.5t128 51.5q-169 67 -169 188q0 62 42 106t110 66t145 22q56 0 91.5 -7.5t64.5 -23.5q91 -45 91 -121q0 -29 -15.5 -51.5t-42 -35t-57.5 -12.5q-48 0 -78.5 24t-30.5 69q0 38 26.5 68.5t69.5 37.5q-13 12 -40 19.5t-60 7.5q-52 0 -94.5 -22 t-67 -66t-24.5 -108q0 -86 58 -152q55 11 84 11q26 0 40.5 -11t14.5 -29q0 -14 -12 -22.5t-30 -8.5q-20 0 -41 9t-36 18t-19 11q-75 -38 -116.5 -95.5t-41.5 -145.5q0 -145 115.5 -218t321.5 -73q103 0 198 30.5t154 89.5t59 141q0 136 -114 190q-43 -13 -99.5 -28.5 t-79.5 -22.5q-83 -19 -135.5 -38t-80 -45t-27.5 -63q0 -35 24 -62.5t61.5 -42.5t77.5 -15q15 0 34 4.5t25 10.5q-37 12 -56 37.5t-19 60.5q0 46 33.5 72.5t86.5 26.5t84 -28t31 -74q0 -67 -59.5 -101.5t-152.5 -34.5q-62 0 -112.5 21.5t-80.5 64.5t-30 106q0 111 85.5 177 t249.5 98q27 7 99.5 24.5t123.5 35.5q115 28 170 61.5t55 85.5q0 39 -24 70.5t-63.5 49t-81.5 17.5q-28 0 -43 -8q34 -13 53.5 -39t19.5 -55q0 -44 -33.5 -70t-86.5 -26q-52 0 -84 26.5t-32 72.5q0 59 51 92.5t136 33.5q70 0 124 -25.5t83.5 -73t29.5 -112.5 q0 -111 -77 -173t-226 -94l-27 -9q67 -29 103 -95.5t36 -152.5q0 -104 -64.5 -187.5t-181.5 -131t-269 -47.5q-165 0 -289.5 45t-193 129.5t-68.5 197.5z" />
<glyph unicode="'" horiz-adv-x="312" d="M63 991q0 46 26.5 73t67.5 27t67.5 -26.5t26.5 -71.5q0 -37 -8.5 -68t-33.5 -98t-42 -128h-20q-16 54 -40.5 119t-34 98.5t-9.5 74.5z" />
<glyph unicode="(" horiz-adv-x="475" d="M52 466q0 -239 95 -421t278 -317l23 18q-100 158 -145 329.5t-45 390.5t45.5 392t144.5 329l-23 18q-183 -135 -278 -317t-95 -422z" />
<glyph unicode=")" horiz-adv-x="475" d="M27 -254q100 158 145 329.5t45 390.5t-45.5 392t-144.5 329l23 18q183 -135 278 -317t95 -422q0 -239 -95 -421t-278 -317z" />
<glyph unicode="*" d="M76 654q0 39 45 65q23 13 52.5 20.5t87 17t92.5 16.5q-34 7 -93 17.5t-88.5 18t-51.5 20.5q-44 25 -44 65q0 19 11 37q21 38 58 38q23 0 48 -15q22 -13 43.5 -35.5t58.5 -66.5t59 -69q-9 30 -29.5 85t-29 85.5t-8.5 55.5q0 41 21.5 61t52.5 20q30 0 50.5 -20t20.5 -61 q0 -26 -8.5 -55t-28 -83t-30.5 -87q22 24 59.5 69.5t59 67.5t42.5 35q24 13 48 13q38 0 58 -36q13 -20 13 -39q0 -39 -46 -64q-22 -12 -50.5 -19.5t-85.5 -17.5t-91 -18q32 -6 89.5 -16.5t87 -18t50.5 -19.5q46 -25 46 -65q0 -19 -13 -38q-20 -38 -57 -38q-22 0 -47 15 q-23 13 -44 35t-58 65.5t-60 68.5q11 -30 31 -85t28.5 -85t8.5 -55q0 -41 -21.5 -60.5t-51.5 -19.5q-31 0 -52 19.5t-21 60.5q0 28 9.5 59.5t27 79t31.5 88.5q-22 -25 -60 -70.5t-59.5 -67.5t-42.5 -35q-24 -13 -47 -13q-38 0 -60 36q-11 20 -11 38z" />
<glyph unicode="+" horiz-adv-x="858" d="M54 508v45h348v353h54v-353h347v-45h-347v-351h-54v351h-348z" />
<glyph unicode="," horiz-adv-x="405" d="M73 94q0 51 34.5 83.5t88.5 32.5q73 0 106 -53q16 -23 24.5 -56t8.5 -68q0 -77 -39.5 -140.5t-117.5 -99.5l-14 27q43 19 75.5 56t38.5 76q4 20 4 35q0 17 -4 28q-34 -36 -87 -36q-52 0 -85 30.5t-33 84.5z" />
<glyph unicode="-" d="M90 342v124h539v-124h-539z" />
<glyph unicode="." horiz-adv-x="403" d="M74 94q0 53 34.5 84.5t92.5 31.5q60 0 94 -31.5t34 -84.5t-34 -84t-94 -31q-58 0 -92.5 31t-34.5 84z" />
<glyph unicode="/" horiz-adv-x="550" d="M48 -21l407 1101h49l-407 -1101h-49z" />
<glyph unicode="0" horiz-adv-x="964" d="M67 375q0 118 53 213.5t149.5 150.5t221.5 55q117 0 210 -49.5t144.5 -139t51.5 -206.5q0 -119 -53 -215t-149.5 -150.5t-220.5 -54.5q-117 0 -209.5 49t-145 139t-52.5 208zM293 380q0 -129 26 -213t69.5 -122.5t99.5 -38.5q53 0 94.5 46.5t65.5 135t24 207.5 q0 128 -26 211.5t-70 122t-99 38.5q-54 0 -96 -46t-65 -134t-23 -207z" />
<glyph unicode="1" horiz-adv-x="572" d="M60 680v33q130 2 214 19.5t148 56.5v-644q0 -44 10.5 -68.5t33.5 -35t63 -10.5v-31q-160 6 -206 6q-47 0 -257 -6v31q71 0 106 27t35 96v365q0 72 -13 105.5t-43 44.5t-91 11z" />
<glyph unicode="2" horiz-adv-x="781" d="M61 607q110 187 350 187q77 0 133 -22.5t86.5 -65t30.5 -102.5q0 -87 -63.5 -153.5t-181 -149t-156.5 -123.5h323q41 0 61 6.5t28 20t11 40.5h32q0 -176 6 -252q-34 7 -223 7h-435v28q21 22 128.5 120t171 199t63.5 208q0 152 -139 152q-63 0 -111.5 -28.5t-88.5 -86.5z " />
<glyph unicode="3" horiz-adv-x="729" d="M43 -196q99 3 193.5 44t156.5 117.5t62 181.5q0 57 -19 103t-54.5 73t-83.5 31q-53 -23 -77 -23q-28 0 -28 20q0 16 13.5 24.5t34.5 8.5q9 0 24.5 -2.5t27.5 -3.5q115 81 115 201q0 66 -34.5 98.5t-98.5 32.5q-60 0 -110 -29.5t-84 -87.5l-27 14q46 85 120 136t194 51 q74 0 132 -21t90.5 -59.5t32.5 -91.5q0 -56 -36.5 -106t-105.5 -86.5t-161 -54.5l25 1q97 0 172 -26.5t117.5 -78t42.5 -123.5q0 -110 -94 -195t-241 -132t-299 -47v30z" />
<glyph unicode="4" horiz-adv-x="789" d="M12 54v31l557 709h24v-586h12q41 0 61 6t28 19.5t12 41.5h31q0 -159 6 -229q-22 5 -150 7v-264h-173v265h-408zM150 208h270v348z" />
<glyph unicode="5" horiz-adv-x="686" d="M45 -194q94 1 179 41.5t137.5 117t52.5 180.5q0 94 -44 144t-128 50q-41 0 -71.5 -10.5t-63.5 -32.5l-20 14l47 467q30 -5 81 -5h247q43 0 60 12t22 46h31q0 -166 7 -251q-32 7 -208 7h-230l-24 -255q86 60 225 60q97 0 162.5 -31.5t97.5 -84.5t32 -121 q0 -111 -86.5 -196.5t-224 -132t-281.5 -46.5v27z" />
<glyph unicode="6" horiz-adv-x="838" d="M70 405q0 208 94 353t230 222.5t272 100.5l7 -30q-96 -30 -168 -78t-127 -147.5t-74 -266.5q31 51 83.5 75t113.5 24q80 0 147 -39t106.5 -112.5t39.5 -171.5q0 -111 -50 -191.5t-135.5 -122.5t-186.5 -42q-109 0 -188 50.5t-121.5 146t-42.5 229.5zM296 396 q0 -140 20.5 -226.5t52 -123.5t68.5 -37q36 0 65.5 32.5t47.5 102.5t18 177q0 153 -35 223.5t-92 70.5q-38 0 -78.5 -28t-62.5 -84q-4 -51 -4 -107z" />
<glyph unicode="7" horiz-adv-x="680" d="M34 779q34 -7 223 -7h422v-32q-20 -44 -97.5 -185.5t-122 -271.5t-44.5 -274q0 -9 4 -57.5t4 -63.5q0 -46 -28.5 -77.5t-80.5 -31.5q-54 0 -81.5 35.5t-27.5 95.5q0 133 73 262t170 256t122 163h-398q-41 0 -61 -6.5t-27.5 -20t-11.5 -41.5h-32q0 180 -6 256z" />
<glyph unicode="8" horiz-adv-x="838" d="M64 235q0 183 243 290q-60 52 -101 96.5t-66.5 98.5t-25.5 116q0 77 43 132t115.5 83.5t158.5 28.5q84 0 150.5 -26t104 -73.5t37.5 -110.5q0 -73 -51.5 -131t-153.5 -111q92 -78 140 -124.5t83.5 -108.5t35.5 -134q0 -81 -47 -145.5t-131 -100.5t-188 -36 q-94 0 -173.5 29.5t-126.5 87t-47 139.5zM250 261q0 -114 39.5 -184.5t128.5 -70.5q70 0 110.5 44.5t40.5 116.5q0 67 -32.5 123.5t-76.5 99.5t-129 115q-81 -85 -81 -244zM311 929q0 -52 24 -99.5t63 -89.5t97 -92q28 40 41.5 97.5t13.5 112.5q0 91 -35 143t-97 52 q-49 0 -78 -34t-29 -90z" />
<glyph unicode="9" horiz-adv-x="827" d="M43 439q0 111 50.5 191t135.5 122t186 42q109 0 188.5 -48.5t121.5 -141t42 -223.5q0 -187 -92.5 -318t-227.5 -201t-267 -89l-6 30q89 25 157 65.5t121.5 122t75.5 215.5q-32 -47 -83 -69t-108 -22q-81 0 -147.5 39.5t-106.5 113t-40 171.5zM269 451q0 -151 35 -222 t92 -71q38 0 77 26t62 80q6 58 6 124q0 137 -20.5 221t-52 119.5t-69.5 35.5q-35 0 -64.5 -32.5t-47.5 -102.5t-18 -178z" />
<glyph unicode=":" horiz-adv-x="433" d="M89 94q0 53 34.5 84.5t92.5 31.5q60 0 94 -31.5t34 -84.5t-34 -84t-94 -31q-58 0 -92.5 31t-34.5 84zM89 678q0 53 34.5 84.5t92.5 31.5q60 0 94 -31.5t34 -84.5t-34 -84t-94 -31q-58 0 -92.5 31t-34.5 84z" />
<glyph unicode=";" horiz-adv-x="442" d="M91 94q0 51 34.5 83.5t88.5 32.5q73 0 106 -53q16 -23 24.5 -56t8.5 -68q0 -77 -39.5 -140.5t-117.5 -99.5l-14 27q43 19 75.5 56t38.5 76q4 20 4 35q0 17 -4 28q-34 -36 -87 -36q-52 0 -85 30.5t-33 84.5zM94 678q0 53 34.5 84.5t92.5 31.5q60 0 94 -31.5t34 -84.5 t-34 -84t-94 -31q-58 0 -92.5 31t-34.5 84z" />
<glyph unicode="&#x3c;" horiz-adv-x="900" d="M42 531l728 339l26 -54l-612 -285l612 -286l-26 -54z" />
<glyph unicode="=" horiz-adv-x="949" d="M100 404v44h749v-44h-749zM100 613v45h749v-45h-749z" />
<glyph unicode="&#x3e;" horiz-adv-x="900" d="M104 245l26 -54l728 340l-728 339l-26 -54l612 -285z" />
<glyph unicode="?" horiz-adv-x="759" d="M45 987q0 42 22.5 73t62.5 57q89 52 224 52q107 0 188 -32.5t126 -93t45 -143.5q0 -123 -102 -207.5t-279 -124.5v-218h-30v232q80 35 123.5 79t58.5 95t15 116q0 135 -49 201.5t-135 66.5q-42 0 -76.5 -10t-53.5 -30q84 -25 84 -109q0 -46 -33 -77t-85 -31 q-31 0 -55 14.5t-37.5 38t-13.5 51.5zM191 94q0 53 34.5 84.5t92.5 31.5q59 0 93.5 -31.5t34.5 -84.5t-34.5 -84t-93.5 -31q-58 0 -92.5 31t-34.5 84z" />
<glyph unicode="@" horiz-adv-x="1321" d="M67 214q0 200 98.5 381.5t266.5 292.5t367 111q137 0 244 -43.5t169 -135.5t62 -232q0 -159 -68.5 -285t-171.5 -195t-203 -69q-118 0 -118 103q0 30 9 66q-40 -89 -92.5 -129t-119.5 -40q-81 0 -127 49.5t-46 144.5q0 106 51 219t133.5 188t172.5 75q46 0 76 -24.5 t40 -65.5l13 69q119 0 189 21l-118 -540q-9 -37 -9 -55q0 -34 25 -34q10 0 20 4q67 20 140 85.5t123.5 172t50.5 241.5q0 133 -59 218.5t-159 125t-226 39.5q-182 0 -344.5 -104t-260.5 -278.5t-98 -372.5q0 -149 58 -245.5t160.5 -141t239.5 -44.5q173 0 308 81l10 -20 q-58 -40 -140.5 -64t-179.5 -24q-146 0 -255 48.5t-170 150.5t-61 256zM528 235q0 -67 15 -95.5t46 -28.5q46 0 87.5 58.5t73.5 167.5l48 232q-1 38 -18 65.5t-49 27.5q-48 0 -95.5 -63.5t-77.5 -163t-30 -200.5z" />
<glyph unicode="A" horiz-adv-x="997" d="M-23 0v30q75 12 129 157l341 874q24 -2 52 -2q29 0 51 2l363 -935q20 -50 45 -72.5t49 -23.5v-30q-89 4 -227 4q-153 0 -227 -4v30q57 2 81 13.5t24 41.5q0 22 -18 70l-90 246h-325l-40 -103q-40 -105 -40 -167q0 -55 32.5 -77t99.5 -24v-30q-101 4 -186 4q-68 0 -114 -4 zM237 431h302l-148 403z" />
<glyph unicode="B" horiz-adv-x="1004" d="M51 0v30q50 2 72.5 11.5t31 35t8.5 81.5v742q0 56 -8.5 81.5t-31 35t-72.5 12.5v29q75 -4 227 -4q60 0 133 1.5t101 1.5q121 0 204 -29.5t124.5 -82.5t41.5 -123q0 -56 -32 -109t-99.5 -94.5t-167.5 -59.5v-3q133 -10 217.5 -49t122 -95.5t37.5 -121.5 q0 -93 -49.5 -158.5t-142.5 -98.5t-220 -33q-33 0 -110.5 2t-156.5 2q-154 0 -230 -4zM401 158q0 -54 7.5 -79.5t28.5 -35t67 -9.5q208 0 208 262q0 118 -59.5 179.5t-188.5 61.5h-63v-379zM401 562h64q97 0 136 66.5t39 177.5q0 112 -35 167.5t-112 55.5q-40 0 -59 -11 t-26 -37.5t-7 -80.5v-338z" />
<glyph unicode="C" horiz-adv-x="1054" d="M64 520q0 165 67.5 292.5t187.5 197.5t274 70q90 0 153 -25.5t123 -71.5q16 -14 29 -14q31 0 38 89h34q-6 -101 -6 -362h-34q-9 76 -20.5 123t-33 82.5t-58.5 65.5q-38 36 -87.5 54.5t-102.5 18.5q-103 0 -169.5 -70.5t-97 -187t-30.5 -256.5t32 -256t100 -185.5 t171 -69.5q51 0 101 19t84 54q38 30 59.5 68t32 88.5t19.5 132.5h34q0 -271 6 -377h-34q-4 47 -12.5 67.5t-24.5 20.5q-11 0 -30 -12q-44 -31 -81.5 -51.5t-86 -33t-109.5 -12.5q-158 0 -277.5 64t-185 186.5t-65.5 290.5z" />
<glyph unicode="D" horiz-adv-x="1159" d="M51 0v30q50 2 72.5 11.5t31 35t8.5 81.5v742q0 56 -8.5 81.5t-31 35t-72.5 12.5v29q96 -5 180 -5l47 1q210 4 234 4q292 0 437 -132t145 -385q0 -163 -70.5 -285t-205 -189t-319.5 -67q-22 0 -102.5 2t-115.5 2q-154 0 -230 -4zM401 155q0 -54 8.5 -80.5t32 -37 t70.5 -10.5q124 0 197.5 58t105 169.5t31.5 280.5q0 170 -34 279t-107.5 163t-193.5 54q-47 0 -70 -10.5t-31.5 -37.5t-8.5 -80v-748z" />
<glyph unicode="E" horiz-adv-x="947" d="M51 0v30q50 2 72.5 11.5t31 35t8.5 81.5v742q0 56 -8.5 81.5t-31 35t-72.5 12.5v29q161 -4 487 -4q220 0 312 4q-10 -123 -10 -221q0 -66 5 -101h-35q-15 109 -46.5 171.5t-79.5 89.5t-119 27h-61q-47 0 -68 -7.5t-28 -29t-7 -69.5v-370h47q81 0 121.5 58t56.5 139h35 q-5 -74 -5 -141v-72q0 -76 9 -212h-34q-30 198 -183 198h-47v-377q0 -48 7 -69.5t28 -29.5t68 -8h73q106 0 171 73t92 246h35q-5 -49 -5 -126q0 -137 10 -227q-101 4 -342 4q-326 0 -487 -4z" />
<glyph unicode="F" horiz-adv-x="884" d="M51 0v30q50 2 72.5 11.5t31 35t8.5 81.5v742q0 56 -8.5 81.5t-31 35t-72.5 12.5v29q161 -4 487 -4q220 0 312 4q-10 -127 -10 -227q0 -70 5 -113h-35q-19 114 -53 181.5t-83 96t-121 28.5h-49q-47 0 -68 -7.5t-28 -29t-7 -69.5v-377h52q80 0 121 58.5t57 139.5h34 q-5 -74 -5 -141l1 -72q0 -78 9 -212h-35q-31 197 -182 197h-52v-344q0 -60 12.5 -87t45 -36.5t102.5 -10.5v-33q-184 4 -274 4q-43 0 -236 -4z" />
<glyph unicode="G" horiz-adv-x="1098" d="M64 518q0 167 69 294.5t192 197.5t280 70q92 0 156 -25.5t125 -71.5q18 -14 30 -14q15 0 24 21t14 68h34q-5 -101 -5 -362h-35q-11 101 -34.5 164t-77.5 107q-36 35 -88.5 54t-107.5 19q-104 0 -173.5 -71t-102.5 -188t-33 -255q0 -517 287 -517q65 0 105 30q20 13 28 31 t8 47v146q0 70 -11.5 102.5t-42 44.5t-96.5 15v30q86 -5 255 -5q138 0 200 5v-30q-30 -3 -43.5 -12t-18.5 -34.5t-5 -82.5v-296h-30q-1 31 -12 58t-31 27q-25 0 -81 -31q-130 -75 -245 -75q-172 0 -292 64t-181 184.5t-61 290.5z" />
<glyph unicode="H" horiz-adv-x="1195" d="M51 0v30q50 2 72.5 11.5t31 35t8.5 81.5v742q0 56 -8.5 81.5t-31 35t-72.5 12.5v29q75 -4 236 -4q146 0 225 4v-29q-50 -3 -72.5 -12.5t-30.5 -35t-8 -81.5v-352h396v352q0 56 -8.5 81.5t-31.5 35t-72 12.5v29q83 -4 235 -4t227 4v-29q-51 -3 -73.5 -12.5t-31 -35 t-8.5 -81.5v-742q0 -56 8.5 -81.5t31 -35t73.5 -11.5v-30q-75 4 -227 4t-235 -4v30q49 2 72 11.5t31.5 35t8.5 81.5v360h-396v-360q0 -56 8 -81.5t30.5 -35t72.5 -11.5v-30q-79 4 -225 4q-160 0 -236 -4z" />
<glyph unicode="I" horiz-adv-x="562" d="M51 0v30q50 2 72.5 11.5t31 35t8.5 81.5v742q0 56 -8.5 81.5t-31 35t-72.5 12.5v29q75 -4 236 -4q146 0 225 4v-29q-50 -3 -72.5 -12.5t-30.5 -35t-8 -81.5v-742q0 -56 8 -81.5t30.5 -35t72.5 -11.5v-30q-79 4 -225 4q-160 0 -236 -4z" />
<glyph unicode="J" horiz-adv-x="543" d="M-237 -145q0 46 33 74t87 28q53 0 83.5 -26t30.5 -73q0 -34 -19.5 -60t-57.5 -39q15 -10 54 -10q55 0 94.5 29t57.5 78q13 39 19 82t7.5 102t1.5 177v683q0 56 -8.5 81.5t-31.5 35t-72 12.5v29q74 -4 227 -4q151 0 235 4v-29q-51 -3 -73.5 -12.5t-30.5 -35t-8 -81.5v-547 v-89q0 -100 -4.5 -174t-21.5 -127q-20 -70 -71.5 -125.5t-130 -87t-176.5 -31.5q-95 0 -151 28q-74 37 -74 108z" />
<glyph unicode="K" horiz-adv-x="1067" d="M51 0v30q50 2 72.5 11.5t31 35t8.5 81.5v742q0 56 -8.5 81.5t-31 35t-72.5 12.5v29q75 -4 236 -4q145 0 225 4v-29q-50 -3 -72.5 -12.5t-30.5 -35t-8 -81.5v-336q59 3 108.5 36t112.5 104l88 106q68 81 68 138q0 38 -28.5 59t-81.5 23v28q110 -4 222 -4q86 0 140 4v-28 q-118 -27 -217 -144l-187 -222l349 -543q21 -35 45 -55.5t63 -35.5v-30q-107 4 -234 4q-99 0 -190 -4v30q43 2 61 8.5t18 20.5q0 13 -16 38l-217 351q-20 33 -35 50t-30.5 24t-38.5 9v-373q0 -56 8 -81.5t30.5 -35t72.5 -11.5v-30q-80 4 -225 4q-161 0 -236 -4z" />
<glyph unicode="L" horiz-adv-x="913" d="M51 0v30q50 2 72.5 11.5t31 35t8.5 81.5v742q0 56 -8.5 81.5t-31 35t-72.5 12.5v29q75 -4 236 -4q152 0 235 4v-29q-54 -3 -78.5 -12.5t-33.5 -35t-9 -81.5v-759q0 -48 7 -69.5t26 -29.5t61 -8h73q68 0 124.5 42t95 117.5t52.5 174.5h35q-5 -51 -5 -131q0 -144 10 -237 q-101 4 -342 4q-326 0 -487 -4z" />
<glyph unicode="M" horiz-adv-x="1385" d="M53 0v30q48 6 71 25t31.5 57t8.5 115v673q0 56 -8.5 81.5t-31 35t-71.5 12.5v29q47 -4 129 -4q138 0 236 4l302 -726l276 722h106q151 0 235 4v-29q-51 -3 -73.5 -12.5t-31 -35t-8.5 -81.5v-742q0 -56 8.5 -81.5t31.5 -35t73 -11.5v-30q-84 4 -235 4q-160 0 -236 -4v30 q54 2 78.5 11.5t33.5 35t9 81.5v782l-361 -941h-24l-403 962v-716q0 -88 9.5 -129.5t39 -60.5t96.5 -25v-30q-58 4 -162 4q-82 0 -129 -4z" />
<glyph unicode="N" horiz-adv-x="1079" d="M53 0v30q48 6 71 25t31.5 57t8.5 115v673q0 56 -8.5 81.5t-31 35t-71.5 12.5v29q47 -4 129 -4q76 0 129 4l579 -713v468q0 89 -9.5 130t-39 60t-96.5 26v29q57 -4 161 -4q83 0 130 4v-29q-49 -7 -72 -25.5t-31.5 -57t-8.5 -115.5v-834q-11 1 -36 1q-27 0 -40 -1l-649 822 v-574q0 -88 9.5 -129.5t39 -60.5t96.5 -25v-30q-58 4 -162 4q-82 0 -129 -4z" />
<glyph unicode="O" horiz-adv-x="1185" d="M64 520q0 165 67.5 292.5t187.5 197.5t274 70q158 0 277.5 -64.5t185 -186.5t65.5 -291q0 -165 -67.5 -292t-188 -197t-273.5 -70q-158 0 -277.5 64t-185 186.5t-65.5 290.5zM312 526q0 -155 38 -273.5t103 -182.5t145 -64q82 0 144.5 66.5t96.5 186t34 273.5 q0 155 -38 273.5t-103.5 183t-143.5 64.5q-83 0 -145.5 -67t-96.5 -186.5t-34 -273.5z" />
<glyph unicode="P" horiz-adv-x="958" d="M51 0v30q50 2 72.5 11.5t31 35t8.5 81.5v742q0 56 -8.5 81.5t-31 35t-72.5 12.5v29q75 -4 227 -4q60 0 133 1.5t101 1.5q136 0 229 -37t139.5 -103.5t46.5 -154.5q0 -82 -41.5 -157.5t-141.5 -126t-264 -50.5h-79v-261q0 -60 12.5 -87t45 -36.5t102.5 -10.5v-33 q-184 4 -274 4q-43 0 -236 -4zM401 458h64q122 0 168 77.5t46 210.5q0 145 -43 214t-143 69q-40 0 -59 -11t-26 -37.5t-7 -80.5v-442z" />
<glyph unicode="Q" horiz-adv-x="1185" d="M64 520q0 165 67.5 292.5t187.5 197.5t274 70q158 0 277.5 -64.5t185 -186.5t65.5 -291q0 -159 -63 -283t-176 -196t-259 -79q-35 -5 -63.5 -14t-76.5 -28.5t-84 -30.5q52 -4 138 -11.5t146.5 -11t110.5 -3.5q68 0 112 7q93 10 146.5 40t89.5 90l27 -8 q-25 -169 -103 -233q-32 -27 -82.5 -42.5t-110.5 -15.5q-81 0 -157.5 24.5t-180.5 70t-152 63.5q-23 8 -36 11q-64 -32 -126 -32q-31 0 -50.5 10t-19.5 30q0 19 21 29.5t61 10.5q57 0 114 -21q29 7 53.5 16.5t62 26t60.5 24.5q-140 14 -243 81.5t-159.5 184t-56.5 272.5z M312 526q0 -155 38 -273.5t103 -182.5t145 -64q82 0 144.5 66.5t96.5 186t34 273.5q0 155 -38 273.5t-103.5 183t-143.5 64.5q-83 0 -145.5 -67t-96.5 -186.5t-34 -273.5z" />
<glyph unicode="R" horiz-adv-x="1034" d="M51 0v30q50 2 72.5 11.5t31 35t8.5 81.5v742q0 56 -8.5 81.5t-31 35t-72.5 12.5v29q76 -4 227 -4q60 0 133 1.5t101 1.5q206 0 310.5 -67.5t104.5 -192.5q0 -66 -31.5 -126t-106.5 -104t-198 -59h1q91 -8 149 -30.5t90.5 -63t45.5 -103.5l35 -154q12 -61 28 -84t44 -23 q18 0 31 8t29 26l20 -18q-41 -46 -87 -66.5t-111 -20.5q-86 0 -136.5 36.5t-65.5 125.5l-27 149q-14 72 -28 116t-40.5 70t-70.5 26h-97v-344q0 -56 8 -81.5t30.5 -35t72.5 -11.5v-30q-79 4 -225 4q-160 0 -236 -4zM401 532h64q84 0 131 32t65 86t18 130q0 123 -43.5 186 t-142.5 63q-40 0 -59 -11t-26 -37.5t-7 -80.5v-368z" />
<glyph unicode="S" horiz-adv-x="873" d="M82 -10q6 93 6 403h35q9 -167 73.5 -271t198.5 -104q52 0 94 18.5t66.5 56.5t24.5 92q0 59 -27 105.5t-73.5 84.5t-123.5 89q-91 58 -144 101t-87.5 102t-34.5 137q0 91 46 152.5t122 91.5t167 30q54 0 93.5 -8t66.5 -20t58 -30q36 -21 51 -21q13 0 20.5 15.5t11.5 49.5 h35q-8 -100 -8 -341h-34q-5 81 -36 154t-87 119t-131 46q-47 0 -85 -18.5t-58.5 -53t-20.5 -80.5q0 -75 44.5 -122t116 -96t96.5 -65q87 -59 138.5 -102t83.5 -100.5t32 -133.5q0 -96 -50 -161.5t-133.5 -98t-187.5 -32.5q-84 0 -139 15t-102 40q-32 21 -50 21 q-14 0 -21.5 -15.5t-11.5 -49.5h-35z" />
<glyph unicode="T" horiz-adv-x="998" d="M37 1058q137 -4 462 -4q326 0 461 4q-11 -151 -11 -254q0 -64 5 -113h-34q-25 124 -61 197t-86 104.5t-121 31.5h-34v-854q0 -62 12.5 -90.5t45 -38.5t101.5 -11v-30q-188 4 -284 4q-94 0 -273 -4v30q70 1 102.5 11t45 38.5t12.5 90.5v854h-33q-73 0 -123 -31.5 t-85.5 -104t-61.5 -197.5h-34q5 49 5 113q0 103 -11 254z" />
<glyph unicode="U" horiz-adv-x="1030" d="M28 1029v29q77 -4 233 -4q155 0 238 4v-29q-54 -3 -78.5 -12.5t-33.5 -35t-9 -81.5v-563q0 -106 19 -172t64 -100t124 -34q149 0 210.5 101t61.5 286v395q0 87 -10.5 129t-40.5 61t-94 26v29q56 -4 161 -4q83 0 130 4v-29q-49 -7 -72 -25.5t-31.5 -57t-8.5 -115.5v-396 q0 -214 -61 -317q-41 -66 -117 -102.5t-187 -36.5q-172 0 -269 75q-47 38 -72.5 88.5t-34.5 118t-9 170.5v469q0 56 -8.5 81.5t-31.5 35t-73 12.5z" />
<glyph unicode="V" horiz-adv-x="998" d="M-18 1029v29q90 -4 228 -4q152 0 227 4v-29q-57 -3 -81.5 -14t-24.5 -42q0 -23 19 -70l263 -669l184 495q42 118 42 183q0 60 -32 87t-94 30v29q101 -4 187 -4q69 0 114 4v-29q-37 -15 -73.5 -57.5t-64.5 -121.5l-315 -853q-17 2 -53 2q-34 0 -50 -2l-382 936 q-19 50 -44 72t-50 24z" />
<glyph unicode="W" horiz-adv-x="1446" d="M-18 1029v29q90 -4 223 -4q126 0 183 4v-29q-51 -7 -51 -59q0 -28 13 -67l218 -631l152 444l-77 232q-14 43 -34.5 60.5t-47.5 20.5v29q83 -4 214 -4q145 0 215 4v-29q-55 -2 -78.5 -13t-23.5 -43q0 -24 15 -70l204 -626l143 452q33 110 33 175t-31.5 93.5t-95.5 31.5v29 q100 -4 185 -4q71 0 115 4v-29q-87 -34 -131 -179l-264 -853q-16 2 -52 2t-52 -2l-220 667l-221 -667q-17 2 -52 2q-36 0 -53 -2l-335 936q-17 49 -43 71.5t-51 24.5z" />
<glyph unicode="X" horiz-adv-x="1032" d="M4 1029v31q167 -6 214 -6q131 0 229 6v-31q-50 0 -72.5 -7t-22.5 -22q0 -12 12 -28l222 -325l110 149q71 91 71 150q0 37 -28 58t-81 25v29q85 -4 188 -4q91 0 138 4v-29q-47 -14 -95.5 -56t-92.5 -101l-191 -254l351 -512q20 -30 33.5 -45t27.5 -21.5t34 -8.5v-31 q-157 6 -205 6q-54 0 -241 -6v31q53 0 76 5.5t23 19.5q0 10 -10 26l-252 370l-119 -164q-69 -92 -69 -157q0 -46 33.5 -71.5t93.5 -29.5v-30q-85 4 -236 4q-90 0 -138 -4v30q105 34 217 182l199 268l-323 474q-21 31 -34 45.5t-26.5 21t-35.5 8.5z" />
<glyph unicode="Y" horiz-adv-x="931" d="M-10 1029v31q65 -7 176 -7q140 0 281 7v-31q-53 0 -83 -9.5t-30 -34.5q0 -16 10 -34l228 -438l116 233q59 118 59 185q0 50 -32 73.5t-93 25.5v30q101 -4 187 -4q68 0 114 4v-30q-35 -15 -69.5 -55.5t-74.5 -117.5l-177 -350v-349q0 -56 8.5 -81.5t31 -35t73.5 -11.5v-30 q-81 4 -230 4q-160 0 -232 -4v30q49 2 72 11.5t31.5 35t8.5 81.5v253l-289 534q-46 84 -86 84z" />
<glyph unicode="Z" horiz-adv-x="900" d="M58 0v30l522 994h-170q-124 0 -201.5 -70t-97.5 -236h-35q5 40 5 113q0 91 -11 227q99 -4 337 -4q295 0 426 4v-29l-521 -995h165q74 0 140.5 32t114.5 104.5t60 188.5h35q-5 -49 -5 -132q0 -137 11 -227q-111 4 -372 4q-279 0 -403 -4z" />
<glyph unicode="[" horiz-adv-x="481" d="M126 -271v1425h300v-28h-85v-1368h85v-29h-300z" />
<glyph unicode="\" horiz-adv-x="550" d="M46 1080l407 -1101h49l-407 1101h-49z" />
<glyph unicode="]" horiz-adv-x="481" d="M56 -242v-29h300v1425h-300v-28h85v-1368h-85z" />
<glyph unicode="^" horiz-adv-x="790" d="M84 485q93 50 172 132t125 172h27q46 -88 125.5 -170.5t172.5 -133.5l-12 -21q-95 22 -185 56t-144 69q-45 -35 -118 -69t-151 -56z" />
<glyph unicode="_" horiz-adv-x="908" d="M88 -128h733v-130h-733v130z" />
<glyph unicode="`" horiz-adv-x="333" d="M11 1164q0 34 28 57q22 19 51 19q20 0 39 -9.5t32 -25.5q18 -20 29.5 -44t41 -99t72.5 -153l-17 -13q-45 41 -80.5 69t-92 68.5t-80.5 69.5q-23 29 -23 61z" />
<glyph unicode="a" horiz-adv-x="937" d="M-17 0v30q37 7 67 44.5t65 115.5l316 722q17 -2 34 -2q18 0 34 2l356 -786q44 -94 94 -96v-30q-71 4 -196 4q-160 0 -235 -4v30q48 2 72 15t24 43q0 27 -19 67l-75 171h-314l-18 -41q-42 -96 -42 -154q0 -51 33 -74t98 -27v-30q-86 4 -173 4q-81 0 -121 -4zM219 356h288 l-143 327z" />
<glyph unicode="b" horiz-adv-x="970" d="M51 0v30q50 2 73 11.5t31 35t8 81.5v592q0 57 -8.5 82.5t-31 35t-72.5 11.5v30q69 -5 200 -5q61 0 135.5 1.5t102.5 1.5q180 0 267 -52.5t87 -151.5q0 -77 -62.5 -131t-203.5 -84v-3q188 -20 266 -83t78 -157q0 -76 -46 -131.5t-135.5 -84.5t-216.5 -29q-31 0 -110 2 t-159 2q-134 0 -203 -4zM392 158q0 -54 6 -79.5t22.5 -35t50.5 -9.5q109 0 160 55t51 162q0 104 -51.5 157.5t-164.5 53.5h-74v-304zM392 488h49q96 0 132.5 52t36.5 146q0 97 -33 145t-108 48q-32 0 -48.5 -10.5t-22.5 -37.5t-6 -81v-262z" />
<glyph unicode="c" horiz-adv-x="982" d="M64 445q0 143 62.5 253t171.5 171t244 61q61 0 106.5 -13t77 -33t68.5 -51q18 -15 29 -15q30 0 38 91h35q-6 -90 -6 -314h-35q-15 80 -30 117.5t-45 73.5q-43 50 -95.5 77.5t-109.5 27.5q-82 0 -143.5 -53t-94.5 -152t-33 -235q0 -137 36.5 -235t101 -148t144.5 -50 q59 0 115 27.5t96 77.5q29 37 43 80t26 126h34q0 -236 6 -329h-34q-8 91 -38 91q-11 0 -30 -15q-55 -46 -115 -71.5t-143 -25.5q-142 0 -251 55t-170 160t-61 251z" />
<glyph unicode="d" horiz-adv-x="1091" d="M51 0v30q50 2 73 11.5t31 35t8 81.5v592q0 57 -8.5 82.5t-31 35t-72.5 11.5v30q87 -5 159 -5h41q234 5 253 5q261 0 391.5 -112.5t130.5 -330.5q0 -140 -63.5 -245.5t-184 -163t-287.5 -57.5q-43 0 -120 2t-117 2q-134 0 -203 -4zM392 155q0 -54 7.5 -80.5t27 -37 t59.5 -10.5q115 0 180.5 49t92.5 143t27 242q0 145 -28.5 237t-95 138t-177.5 46q-40 0 -59 -10.5t-26.5 -37.5t-7.5 -81v-598z" />
<glyph unicode="e" horiz-adv-x="910" d="M51 0v30q50 2 73 11.5t31 35t8 81.5v592q0 57 -8.5 82.5t-31 35t-72.5 11.5v30q156 -5 464 -5q208 0 297 5q-10 -100 -10 -180q0 -58 4 -92h-34q-16 87 -46 139.5t-75.5 75.5t-109.5 23h-55q-39 0 -58 -7t-27.5 -27t-8.5 -64v-305h70q69 0 104 48.5t47 113.5h35 q-6 -59 -6 -116l1 -60q0 -67 9 -177h-34q-11 71 -47.5 116t-108.5 45h-70v-311q0 -43 8.5 -63t27.5 -27t58 -7h64q71 0 121 26t82 85t49 157h34q-5 -42 -5 -108q0 -86 11 -194q-97 4 -327 4q-308 0 -464 -4z" />
<glyph unicode="f" horiz-adv-x="846" d="M51 0v30q50 2 73 11.5t31 35t8 81.5v592q0 57 -8.5 82.5t-31 35t-72.5 11.5v30q156 -5 464 -5q208 0 297 5q-10 -100 -10 -180q0 -58 4 -92h-34q-16 87 -46 139.5t-75.5 75.5t-109.5 23h-55q-39 0 -58 -7t-27.5 -27t-8.5 -64v-305h70q69 0 104 48.5t47 113.5h35 q-6 -59 -6 -116l1 -60q0 -67 9 -177h-34q-11 71 -47.5 116t-108.5 45h-70v-275q0 -56 14 -84t47 -39.5t99 -13.5v-30q-92 4 -265 4q-160 0 -236 -4z" />
<glyph unicode="g" horiz-adv-x="1048" d="M64 437q0 149 66 261t183.5 172t268.5 60q62 0 108 -13t78.5 -32t76.5 -52q18 -15 30 -15q29 0 37 91h34q-6 -86 -6 -299h-34q-23 116 -75 176q-46 51 -93.5 78t-114.5 27q-97 0 -169.5 -54t-111 -153t-38.5 -231q0 -229 74.5 -336.5t222.5 -107.5q49 0 85 21 q32 18 32 64v139q0 62 -11 91t-40 39.5t-92 13.5v30q98 -5 247 -5q126 0 192 5v-30q-31 -3 -44.5 -12t-18.5 -34t-5 -83v-248h-30q-6 55 -31 55q-22 0 -75 -27q-41 -18 -101 -33.5t-129 -15.5q-162 0 -278 54.5t-177 157t-61 246.5z" />
<glyph unicode="h" horiz-adv-x="1167" d="M51 0v30q50 2 73 11.5t31 35t8 81.5v592q0 57 -8.5 82.5t-31 35t-72.5 11.5v30q72 -5 218 -5q151 0 235 5v-30q-51 -2 -73.5 -11.5t-30.5 -35t-8 -82.5v-272h384v272q0 57 -8.5 82.5t-31 35t-72.5 11.5v30q83 -5 235 -5q148 0 218 5v-30q-51 -2 -73.5 -11.5t-31 -35 t-8.5 -82.5v-592q0 -56 8.5 -81.5t31.5 -35t73 -11.5v-30q-70 4 -218 4q-152 0 -235 -4v30q50 2 72.5 11.5t31 35t8.5 81.5v290h-384v-290q0 -56 8.5 -81.5t31 -35t72.5 -11.5v-30q-84 4 -235 4q-146 0 -218 -4z" />
<glyph unicode="i" horiz-adv-x="554" d="M51 0v30q50 2 73 11.5t31 35t8 81.5v592q0 57 -8.5 82.5t-31 35t-72.5 11.5v30q73 -5 232 -5q146 0 221 5v-30q-51 -2 -73.5 -11.5t-30.5 -35t-8 -82.5v-592q0 -56 8 -81.5t30.5 -35t73.5 -11.5v-30q-75 4 -221 4q-158 0 -232 -4z" />
<glyph unicode="j" horiz-adv-x="535" d="M-201 -157q0 44 32 70.5t84 26.5q50 0 80.5 -25t30.5 -69q0 -29 -17.5 -54.5t-50.5 -39.5q21 -3 41 -3q74 0 115 77q22 36 31 96t9 175v653q0 57 -8.5 82.5t-31 35t-72.5 11.5v30q72 -5 218 -5q152 0 235 5v-30q-51 -2 -73.5 -11.5t-30.5 -35t-8 -82.5v-397v-67 q0 -106 -5 -186.5t-21 -136.5q-20 -70 -68 -125t-122 -86.5t-167 -31.5q-91 0 -141 27q-60 31 -60 96z" />
<glyph unicode="k" horiz-adv-x="1064" d="M51 0v30q50 2 73 11.5t31 35t8 81.5v592q0 57 -8.5 82.5t-31 35t-72.5 11.5v30q75 -5 232 -5q145 0 221 5v-30q-51 -2 -73.5 -11.5t-30.5 -35t-8 -82.5v-266q64 5 117.5 31.5t115.5 85.5l91 93q58 53 58 103q0 36 -31 58.5t-81 24.5v29q109 -5 231 -5q79 0 133 5v-29 q-53 -12 -101 -40.5t-103 -81.5l-183 -181l327 -456q29 -36 50 -56t51 -35v-30q-103 4 -228 4q-106 0 -204 -4v30q48 2 68 8.5t20 19.5t-17 39l-196 281q-27 37 -52 55t-66 20v-295q0 -56 8 -81.5t30.5 -35t73.5 -11.5v-30q-76 4 -221 4q-157 0 -232 -4z" />
<glyph unicode="l" horiz-adv-x="880" d="M51 0v30q50 2 73 11.5t31 35t8 81.5v592q0 57 -8.5 82.5t-31 35t-72.5 11.5v30q75 -5 236 -5q142 0 217 5v-30q-51 -2 -73.5 -11.5t-30.5 -35t-8 -82.5v-609q0 -47 8.5 -69t27.5 -30t58 -8h58q99 0 166.5 71.5t91.5 229.5h34q-5 -49 -5 -123q0 -92 11 -212q-97 4 -327 4 q-308 0 -464 -4z" />
<glyph unicode="m" horiz-adv-x="1318" d="M45 879v30q78 -5 238 -5q76 0 132 5l249 -597l249 592h134q144 0 225 5v-30q-54 -2 -78.5 -11.5t-33.5 -35t-9 -82.5v-592q0 -56 9 -81.5t33.5 -35t78.5 -11.5v-30q-81 4 -225 4q-174 0 -255 -4v30q54 2 78.5 11.5t33.5 35t9 81.5v657l-342 -822h-23l-348 820v-613 q0 -66 12 -99t44 -49t98 -22v-30q-64 4 -170 4q-83 0 -130 -4v30q49 6 72.5 22t31.5 49t8 99v550q0 57 -9.5 82.5t-33.5 35t-78 11.5z" />
<glyph unicode="n" horiz-adv-x="1031" d="M53 0v30q48 6 71.5 22t31.5 49t8 99v550q0 57 -8.5 82.5t-30.5 35t-72 11.5v30q47 -5 129 -5q106 0 183 5l477 -592v392q0 66 -12 99t-44 48.5t-98 22.5v30q65 -5 170 -5q84 0 130 5v-30q-48 -7 -71.5 -22.5t-32 -48.5t-8.5 -99v-712q-13 1 -40 1q-26 0 -39 -1l-598 743 v-540q0 -66 11.5 -99t43 -49t99.5 -22v-30q-67 4 -171 4q-82 0 -129 -4z" />
<glyph unicode="o" horiz-adv-x="1134" d="M63 445q0 143 64 253.5t179 171t262 60.5q151 0 265 -55t176.5 -160t62.5 -251q0 -144 -64.5 -253.5t-179.5 -170.5t-262 -61q-151 0 -264.5 55t-176 160t-62.5 251zM302 451q0 -133 36 -234t98 -156t136 -55q78 0 137.5 57t91.5 160t32 235q0 133 -36 234.5t-98 156 t-137 54.5q-78 0 -137 -57.5t-91 -160t-32 -234.5z" />
<glyph unicode="p" horiz-adv-x="921" d="M51 0v30q50 2 73 11.5t31 35t8 81.5v592q0 57 -8.5 82.5t-31 35t-72.5 11.5v30q69 -5 200 -5q64 0 143.5 1.5t109.5 1.5q195 0 289.5 -65t94.5 -184q0 -76 -39 -141t-136 -107t-257 -42h-64v-210q0 -56 9 -81.5t33 -35t78 -11.5v-30q-86 4 -252 4q-140 0 -209 -4z M392 398h49q119 0 163.5 65.5t44.5 178.5q0 121 -38 179t-126 58q-40 0 -59 -10.5t-26.5 -37.5t-7.5 -81v-352z" />
<glyph unicode="q" horiz-adv-x="1135" d="M64 445q0 143 64.5 253.5t179.5 171t261 60.5q152 0 265.5 -55t176 -160t62.5 -251q0 -136 -58 -242.5t-162.5 -169t-239.5 -72.5q-36 -3 -65.5 -12.5t-82 -31.5t-91.5 -32q11 -1 41 -1q29 0 99.5 3.5t104.5 3.5q17 0 43 -1q69 -3 144 -15.5t122 -19.5t93 -7 q62 0 101.5 9t65 28t44.5 50l22 -11q-31 -109 -110.5 -166.5t-206.5 -57.5q-106 0 -209 29t-226.5 76.5t-170.5 63.5q-65 -32 -126 -32q-32 0 -51.5 10t-19.5 30q0 40 83 40q56 0 114 -21q29 7 53 16.5t61.5 26t58.5 24.5q-133 11 -232.5 69t-153.5 158.5t-54 235.5z M304 451q0 -133 36 -234t97.5 -156t136.5 -55q78 0 137 57t91 160t32 235q0 133 -36 234.5t-97.5 156t-136.5 54.5q-79 0 -137.5 -57.5t-90.5 -160t-32 -234.5z" />
<glyph unicode="r" horiz-adv-x="995" d="M51 0v30q50 2 73 11.5t31 35t8 81.5v592q0 57 -8.5 82.5t-31 35t-72.5 11.5v30q69 -5 200 -5q61 0 135.5 1.5t102.5 1.5q201 0 300 -60.5t99 -167.5q0 -59 -31.5 -111t-108.5 -90.5t-204 -50.5q22 -1 44 -5q107 -13 169.5 -48t81.5 -114l31 -133q10 -42 25 -59.5 t38 -17.5q31 0 64 32l21 -19q-36 -42 -81 -63t-112 -21q-84 0 -130.5 33t-60.5 88l-43 177q-12 57 -31 86.5t-47 40.5t-72 11h-49v-257q0 -56 8.5 -81.5t31 -35t72.5 -11.5v-30q-86 4 -244 4q-140 0 -209 -4zM392 445h64q76 0 119 28t58.5 75t15.5 114q0 109 -41.5 163 t-138.5 54q-32 0 -48.5 -10.5t-22.5 -37.5t-6 -81v-305z" />
<glyph unicode="s" horiz-adv-x="864" d="M81 -10q6 84 6 364h34q10 -159 85.5 -250t213.5 -91q43 0 81 14.5t61.5 45.5t23.5 77q0 41 -23 74.5t-64 63.5t-118 74q-92 52 -153.5 97.5t-100.5 102.5t-39 126q0 78 45 132.5t123 82t176 27.5q69 0 117.5 -15t92.5 -40q21 -13 31 -17.5t19 -4.5q14 0 21 16t12 51h34 q-7 -90 -7 -311h-34q-16 134 -86.5 211t-184.5 77q-50 0 -87.5 -15t-58 -41.5t-20.5 -61.5q0 -45 29 -80t69.5 -62t142.5 -88q89 -50 146.5 -92t94.5 -97.5t37 -126.5q0 -82 -47 -139.5t-130.5 -86t-191.5 -28.5q-73 0 -124.5 16t-106.5 42q-36 18 -52 18q-14 0 -21 -15.5 t-12 -49.5h-34z" />
<glyph unicode="t" horiz-adv-x="970" d="M42 909q130 -5 439 -5q316 0 448 5q-11 -121 -11 -203q0 -77 5 -132h-35q-21 113 -50 178t-74.5 94t-117.5 29h-47v-701q0 -62 12 -91t42.5 -40t96.5 -13v-30q-81 4 -269 4q-189 0 -261 -4v30q66 2 96.5 13t42.5 40t12 91v701h-47q-71 0 -117 -29t-75 -94t-50 -178h-34 q5 47 5 132q0 93 -11 203z" />
<glyph unicode="u" horiz-adv-x="995" d="M24 879v30q73 -5 227 -5q146 0 226 5v-30q-51 -2 -73.5 -11.5t-30.5 -35t-8 -82.5v-375q0 -108 14 -178.5t61 -113.5t137 -43q135 0 190 92t55 256v276q0 86 -10 128t-40 61t-95 26v30q59 -5 162 -5q89 0 138 5v-30q-52 -7 -77 -25.5t-34 -57t-9 -114.5v-277 q0 -102 -14 -175t-47 -127q-37 -57 -108 -90.5t-160 -33.5q-167 0 -264 66q-52 39 -79 84t-38 108t-11 164v349q0 57 -8.5 82.5t-31 35t-72.5 11.5z" />
<glyph unicode="v" horiz-adv-x="937" d="M-18 879v30q70 -5 196 -5q160 0 236 5v-30q-50 -2 -73.5 -15t-23.5 -42q0 -26 20 -69l241 -523l150 352q48 117 48 184q0 57 -31 84t-90 29v30q85 -5 184 -5q67 0 109 5v-30q-39 -15 -72.5 -58t-68.5 -126l-292 -698q-18 2 -35 2t-35 -2l-369 786q-42 93 -94 96z" />
<glyph unicode="w" horiz-adv-x="1372" d="M-18 879v30q70 -5 196 -5q146 0 218 5v-30q-75 -4 -75 -61q0 -25 16 -65l202 -508l142 346l-79 192q-19 48 -44.5 71t-49.5 25v30q70 -5 196 -5q153 0 227 5v-30q-49 -2 -71 -15.5t-22 -42.5q0 -26 15 -68l191 -511l117 333q43 120 43 189q0 59 -29.5 86t-86.5 29v30 q86 -5 172 -5q78 0 121 5v-30q-82 -29 -139 -185l-251 -697q-16 2 -34 2q-17 0 -34 -2l-224 551l-221 -551q-17 2 -34 2t-34 -2l-334 786q-41 93 -94 96z" />
<glyph unicode="x" horiz-adv-x="962" d="M12 879v31q152 -6 193 -6q59 0 237 6v-31q-48 0 -70 -5.5t-22 -19.5q0 -10 11 -25l191 -268l94 116q56 67 56 121q0 35 -25.5 56.5t-72.5 24.5v30q85 -5 187 -5q85 0 127 5v-30q-38 -12 -81.5 -45t-81.5 -78l-183 -223l304 -427q30 -42 48 -57t45 -18v-31q-143 6 -193 6 q-51 0 -238 -6v31q49 0 71.5 5.5t22.5 19.5q0 10 -12 26l-210 295l-120 -149q-51 -60 -51 -109q0 -39 34 -62.5t92 -26.5v-30q-85 4 -223 4q-73 0 -127 -4v30q45 18 98.5 61t90.5 87l185 228l-285 398q-21 31 -33.5 45.5t-26 21t-32.5 8.5z" />
<glyph unicode="y" horiz-adv-x="895" d="M-1 877v32q92 -7 176 -7q118 0 263 7v-32q-45 0 -70.5 -8t-25.5 -32q0 -18 17 -46l202 -354l97 175q57 108 57 172q0 89 -113 95v30q92 -5 168 -5q75 0 115 5v-30q-30 -13 -60.5 -50t-72.5 -110l-170 -313v-239q0 -60 10.5 -87t38 -37.5t90.5 -12.5v-30q-79 4 -257 4 q-183 0 -250 -4v30q61 2 89 12.5t39 37.5t11 87v161l-268 466q-25 43 -44.5 61t-41.5 22z" />
<glyph unicode="z" horiz-adv-x="865" d="M67 0v30l470 845h-157q-76 0 -128.5 -28t-87.5 -90.5t-53 -167.5h-35q5 44 5 132q0 76 -11 188q112 -5 375 -5q237 0 343 5v-30l-470 -845h159q79 0 133.5 29.5t90.5 96.5t54 178h34q-4 -55 -4 -141q0 -88 11 -197q-104 4 -354 4q-257 0 -375 -4z" />
<glyph unicode="{" horiz-adv-x="497" d="M26 434v27h7q47 3 71 35t33.5 107.5t9.5 219.5q0 133 31.5 208t101.5 106.5t192 31.5v-28q-48 -1 -70 -22.5t-31 -86.5t-9 -209q0 -127 -39.5 -204t-103.5 -115t-152 -57q88 -19 152 -57t103.5 -116t39.5 -204q0 -150 9 -215.5t30.5 -86t70.5 -21.5v-28q-123 0 -192.5 31 t-101 106.5t-31.5 213.5q0 144 -9.5 219.5t-33.5 108t-71 36.5h-7z" />
<glyph unicode="|" horiz-adv-x="378" d="M124 -291v1574h132v-1574h-132z" />
<glyph unicode="}" horiz-adv-x="497" d="M27 -253v-28q123 0 192.5 31t101 106.5t31.5 213.5q0 144 9.5 219.5t33.5 108t71 36.5h7v27h-7q-47 3 -71 35t-33.5 107.5t-9.5 219.5q0 133 -31.5 208t-101.5 106.5t-192 31.5v-28q48 -1 70 -22.5t31 -86.5t9 -209q0 -127 39.5 -204t103.5 -115t152 -57 q-88 -19 -152 -57t-103.5 -116t-39.5 -204q0 -150 -9 -215.5t-30.5 -86t-70.5 -21.5z" />
<glyph unicode="~" horiz-adv-x="998" d="M90 350q6 69 38.5 122t82.5 81.5t107 28.5q55 0 102 -17t143.5 -67t170.5 -50q112 0 152 105l27 -5q-6 -70 -38.5 -123t-83 -81.5t-108.5 -28.5q-54 0 -100.5 17.5t-143 66.5t-171.5 49q-110 0 -153 -104z" />
<glyph unicode="&#xa2;" horiz-adv-x="746" d="M58 445q0 113 40 207t112.5 159t167.5 96v151h33v-143q60 15 125 15q60 0 105.5 -13t77 -33t68.5 -51q18 -15 29 -15q30 0 39 91h34q-6 -90 -6 -314h-35q-14 80 -29 117.5t-45 73.5q-43 50 -95.5 77.5t-109.5 27.5q-92 0 -158 -65v-736q71 -72 169 -72q59 0 114.5 27.5 t96.5 77.5q29 37 43 80t25 126h35q0 -236 5 -329h-34q-7 91 -37 91q-12 0 -30 -15q-56 -46 -116 -71.5t-143 -25.5q-67 0 -128 12v-262h-33v270q-98 27 -170 87.5t-111 151.5t-39 207zM297 451q0 -204 81 -321v655q-81 -119 -81 -334z" />
<glyph unicode="&#xa3;" horiz-adv-x="986" d="M50 3q0 15 16 33t46 34t68 26q13 41 17 88t4 137v64v59h-114v30h114v119h-114v30h114v33q0 444 378 444q107 0 163 -36q74 -45 74 -115q0 -46 -30 -76.5t-77 -30.5q-48 0 -78 27t-30 71q0 40 20.5 68.5t57.5 42.5q-12 10 -36.5 17t-51.5 7q-72 0 -108.5 -42t-48.5 -121.5 t-12 -216.5v-72h180v-30h-180v-89l-1 -30h181v-30h-184q-11 -76 -45 -136t-77 -117t-61 -80q65 53 119 74.5t105 21.5q40 0 73 -7t99.5 -25t120.5 -18q47 0 73.5 24.5t26.5 60.5q0 45 -29 72.5t-80 38.5l6 24q50 -9 93.5 -34t70.5 -66t27 -96q0 -60 -25 -105.5t-76 -71 t-124 -25.5q-57 0 -107.5 15t-122.5 46t-108 41q-43 12 -73 12q-43 0 -83 -16q-30 -48 -66.5 -73t-72.5 -25q-32 0 -32 24z" />
<glyph unicode="&#xa5;" horiz-adv-x="1013" d="M37 1029v31q65 -7 176 -7q140 0 281 7v-31q-52 0 -82.5 -9.5t-30.5 -34.5q0 -16 10 -34l228 -438l116 233q59 118 59 185q0 50 -32 73.5t-93 25.5v30q101 -4 187 -4q70 0 114 4v-30q-34 -15 -68.5 -55.5t-75.5 -117.5l-176 -350v-54h186v-30h-186v-119h186v-30h-186v-116 q0 -56 8 -81.5t31 -35t73 -11.5v-30q-81 4 -230 4q-160 0 -232 -4v30q50 2 73 11.5t31 35t8 81.5v116h-188v30h188v107l-6 12h-182v30h166l-267 492q-46 84 -86 84z" />
<glyph unicode="&#xa8;" horiz-adv-x="583" d="M9 1024q0 29 15 55t41 41.5t56 15.5q29 0 55.5 -15.5t42.5 -41.5t16 -55q0 -30 -15.5 -56t-42 -41t-56.5 -15t-56 15t-41 41t-15 56zM348 1024q0 29 15.5 55t41.5 41.5t57 15.5q29 0 55 -15.5t41.5 -41.5t15.5 -55q0 -30 -15.5 -56t-41 -41t-55.5 -15q-31 0 -57 15 t-41.5 41t-15.5 56z" />
<glyph unicode="&#xa9;" horiz-adv-x="1316" d="M63 574q0 162 80 299t216.5 216.5t298.5 79.5t298.5 -79.5t216.5 -216.5t80 -299t-80 -298.5t-216.5 -216.5t-298.5 -80t-298.5 80t-216.5 216.5t-80 298.5zM123 574q0 -148 71.5 -274t194.5 -199.5t269 -73.5t268.5 73.5t194.5 199.5t72 274q0 149 -72 274.5t-194.5 199 t-268.5 73.5t-269 -73.5t-194.5 -199t-71.5 -274.5zM321 571q0 131 47.5 224t131.5 140.5t192 47.5q57 0 106.5 -13.5t83.5 -35.5q36 -23 57.5 -58.5t21.5 -78.5q0 -52 -33 -86t-85 -34t-83.5 31t-31.5 81q0 45 28 77.5t71 43.5q-15 16 -44 27t-61 11q-45 0 -79 -27 q-46 -26 -70.5 -103t-24.5 -227q0 -119 27 -192t71.5 -104.5t98.5 -31.5q123 0 195 149l27 -10q-19 -60 -57 -113.5t-99 -87.5t-141 -34q-101 0 -179.5 43.5t-124 134t-45.5 226.5z" />
<glyph unicode="&#xab;" horiz-adv-x="850" d="M39 377v19q120 75 219.5 173.5t192.5 227.5l23 -9q-35 -116 -93.5 -226.5t-119.5 -173.5q60 -61 119 -173.5t94 -229.5l-23 -8q-93 129 -192 227t-220 173zM374 377v19q110 68 201 158t174 207l23 -9q-31 -107 -81.5 -207t-102.5 -157q51 -56 102 -157.5t82 -209.5 l-23 -8q-83 116 -174 206.5t-201 157.5z" />
<glyph unicode="&#xad;" d="M90 342v124h539v-124h-539z" />
<glyph unicode="&#xae;" horiz-adv-x="994" d="M80 752q0 113 56 209t151.5 152t208.5 56q114 0 209.5 -56t151.5 -152t56 -209t-56 -209t-151.5 -152t-209.5 -56q-113 0 -208.5 56t-151.5 152t-56 209zM142 752q0 -99 47.5 -184t129 -135t177.5 -50q97 0 178.5 50t128.5 135t47 184q0 100 -47 184.5t-128.5 134.5 t-178.5 50t-178 -50t-128.5 -134.5t-47.5 -184.5zM293 526v23q15 1 22 5t10 15t3 35v327q0 25 -3 36t-10 15.5t-22 5.5v22q21 -1 92 -1q50 0 82 0.5t48 0.5q95 0 138 -30t43 -87q0 -41 -34.5 -75t-119.5 -47q48 -5 75 -15.5t40 -27.5t19 -45l22 -97q4 -19 8.5 -27.5 t14.5 -8.5t16 9l12 -15q-22 -26 -77 -26q-49 0 -73 15t-31 49l-22 109q-6 27 -13.5 39.5t-26 19t-55.5 8.5v-154q0 -24 3 -35t10 -15t22 -5v-23q-18 0 -42 1t-52 1q-33 0 -58 -1t-41 -1zM451 783h18q102 0 102 100q0 54 -19.5 79.5t-60.5 25.5q-24 0 -32 -8.5t-8 -33.5v-163 z" />
<glyph unicode="&#xb4;" horiz-adv-x="333" d="M30 909q43 78 68 142.5t38.5 96.5t35.5 57q13 17 31.5 26t38.5 9q30 0 52 -19q28 -22 28 -57q0 -33 -23 -61q-23 -29 -69 -62t-87.5 -64t-96.5 -81z" />
<glyph unicode="&#xb8;" horiz-adv-x="340" d="M-4 -263l7 26q47 -5 66 -5q43 0 76 15t33 46q0 39 -50 39q-34 0 -59 -11l48 156h40l-31 -100q47 17 105 17q50 0 77 -21.5t27 -58.5q0 -60 -59.5 -90.5t-149.5 -30.5q-81 0 -130 18z" />
<glyph unicode="&#xbb;" horiz-adv-x="850" d="M80 21q30 107 80 206.5t103 156.5q-53 57 -103 158.5t-80 209.5l21 7q87 -118 177.5 -208t199.5 -156v-18q-109 -67 -200 -157t-177 -208zM377 -15q35 116 93.5 227t118.5 172q-60 61 -118.5 173t-93.5 231l24 8q90 -127 190 -225.5t221 -175.5v-18 q-121 -76 -220.5 -175.5t-190.5 -225.5z" />
<glyph unicode="&#x2c6;" horiz-adv-x="600" d="M20 933q82 49 153 128t114 165h27q40 -85 112 -164t156 -129l-13 -21q-85 20 -167 51t-131 63q-41 -32 -106.5 -63t-133.5 -51z" />
<glyph unicode="&#x2da;" horiz-adv-x="393" d="M34 1047q0 43 22.5 76t59.5 50.5t80 17.5t81 -17.5t60 -50.5t22 -76q0 -44 -22 -77.5t-60 -51.5t-81 -18t-80 18t-59.5 51.5t-22.5 77.5zM76 1045q0 -36 17.5 -61.5t45 -39t57.5 -13.5t58 13t45.5 39t17.5 62t-17.5 62t-45.5 39.5t-58 13.5t-57.5 -13.5t-45 -39.5 t-17.5 -62z" />
<glyph unicode="&#x2dc;" horiz-adv-x="614" d="M20 967q23 106 73 157t114 51q42 0 72.5 -13.5t82 -49t97.5 -35.5q67 0 115 79l21 -11q-23 -105 -73 -156.5t-112 -51.5q-44 0 -74.5 14t-82.5 50t-98 36q-67 0 -115 -80z" />
<glyph unicode="&#x401;" horiz-adv-x="947" d="M51 0v30q50 2 72.5 11.5t31 35t8.5 81.5v742q0 56 -8.5 81.5t-31 35t-72.5 12.5v29q161 -4 487 -4q220 0 312 4q-10 -123 -10 -221q0 -66 5 -101h-35q-15 109 -46.5 171.5t-79.5 89.5t-119 27h-61q-47 0 -68 -7.5t-28 -29t-7 -69.5v-370h47q81 0 121.5 58t56.5 139h35 q-5 -74 -5 -141v-72q0 -76 9 -212h-34q-30 198 -183 198h-47v-377q0 -48 7 -69.5t28 -29.5t68 -8h73q106 0 171 73t92 246h35q-5 -49 -5 -126q0 -137 10 -227q-101 4 -342 4q-326 0 -487 -4zM179 1257q0 29 15.5 55.5t41 42.5t55.5 16q29 0 55.5 -16t42.5 -42.5t16 -55.5 q0 -30 -16 -55.5t-42.5 -41t-55.5 -15.5q-30 0 -56 15t-41 41t-15 56zM536 1257q0 30 15.5 56.5t41.5 42t57 15.5q29 0 55 -16t41.5 -42.5t15.5 -55.5q0 -30 -15.5 -56t-41.5 -41t-55 -15q-31 0 -57 15t-41.5 41t-15.5 56z" />
<glyph unicode="&#x402;" horiz-adv-x="1348" d="M37 1058q137 -4 462 -4q326 0 461 4q-11 -140 -11 -236q0 -64 5 -113h-34q-38 161 -102 238t-166 77h-34v-504q54 45 138 73.5t186 28.5q108 0 193 -36t133.5 -109t48.5 -179q0 -105 -50.5 -177t-135 -107t-188.5 -35q-64 0 -122 19.5t-94 60t-36 99.5q0 37 17 64.5 t46 42.5t65 15q53 0 84 -30.5t31 -82.5q0 -97 -115 -131q15 -11 40 -18.5t51 -7.5q85 0 131.5 70.5t46.5 210.5q0 135 -50.5 209t-176.5 74q-72 0 -141 -24.5t-102 -60.5v-506q-83 21 -217 21q-94 0 -181 -4v30q70 1 102.5 11t45 38.5t12.5 90.5v854h-33q-73 0 -123 -31.5 t-85.5 -104t-61.5 -197.5h-34q5 49 5 113q0 103 -11 254z" />
<glyph unicode="&#x403;" horiz-adv-x="854" d="M51 0v30q50 2 72.5 11.5t31 35t8.5 81.5v742q0 56 -8.5 81.5t-31 35t-72.5 12.5v29q161 -4 487 -4q202 0 289 4q-11 -124 -11 -227q0 -70 5 -113h-35q-20 114 -53.5 181.5t-82.5 96t-121 28.5h-25q-47 0 -68 -7.5t-28 -29t-7 -69.5v-760q0 -56 9.5 -81.5t36.5 -35 t87 -11.5v-30q-88 4 -247 4q-160 0 -236 -4zM300 1172q47 39 79.5 71t80.5 83.5t82 69.5q23 12 46 12t43.5 -11.5t31.5 -32.5q9 -16 9 -35q0 -22 -13 -42.5t-37 -33.5q-33 -19 -88 -32.5t-105 -27t-118 -39.5z" />
<glyph unicode="&#x404;" horiz-adv-x="1058" d="M64 520q0 165 67.5 292.5t187.5 197.5t274 70q90 0 153 -25.5t123 -71.5q16 -14 29 -14q31 0 38 89h34q-6 -87 -6 -308h-34q-14 62 -26 97t-31.5 62.5t-54.5 57.5q-36 36 -85.5 54.5t-104.5 18.5q-103 0 -169.5 -70.5t-97 -187t-30.5 -256.5v-47q27 96 78.5 147t112.5 51 q39 0 72.5 -14.5t97.5 -56.5t112 -42q35 0 67 23.5t45 74.5l26 -7q-13 -85 -42.5 -143t-69 -87t-84.5 -29q-40 0 -72.5 15t-97 57t-117.5 42q-38 0 -71 -20.5t-53 -62.5q10 -117 46 -210.5t99.5 -147.5t153.5 -54q51 0 101 19t84 54q38 30 59.5 68t32 88.5t19.5 132.5h34 q0 -271 6 -377h-34q-4 47 -12.5 67.5t-24.5 20.5q-11 0 -30 -12q-44 -31 -81.5 -51.5t-86 -33t-109.5 -12.5q-158 0 -277.5 64t-185 186.5t-65.5 290.5z" />
<glyph unicode="&#x405;" horiz-adv-x="873" d="M82 -10q6 93 6 403h35q9 -167 73.5 -271t198.5 -104q52 0 94 18.5t66.5 56.5t24.5 92q0 59 -27 105.5t-73.5 84.5t-123.5 89q-91 58 -144 101t-87.5 102t-34.5 137q0 91 46 152.5t122 91.5t167 30q54 0 93.5 -8t66.5 -20t58 -30q36 -21 51 -21q13 0 20.5 15.5t11.5 49.5 h35q-8 -100 -8 -341h-34q-5 81 -36 154t-87 119t-131 46q-47 0 -85 -18.5t-58.5 -53t-20.5 -80.5q0 -75 44.5 -122t116 -96t96.5 -65q87 -59 138.5 -102t83.5 -100.5t32 -133.5q0 -96 -50 -161.5t-133.5 -98t-187.5 -32.5q-84 0 -139 15t-102 40q-32 21 -50 21 q-14 0 -21.5 -15.5t-11.5 -49.5h-35z" />
<glyph unicode="&#x406;" horiz-adv-x="562" d="M51 0v30q50 2 72.5 11.5t31 35t8.5 81.5v742q0 56 -8.5 81.5t-31 35t-72.5 12.5v29q75 -4 236 -4q146 0 225 4v-29q-50 -3 -72.5 -12.5t-30.5 -35t-8 -81.5v-742q0 -56 8 -81.5t30.5 -35t72.5 -11.5v-30q-79 4 -225 4q-160 0 -236 -4z" />
<glyph unicode="&#x407;" horiz-adv-x="562" d="M-5 1257q0 29 15.5 55.5t41 42.5t55.5 16q29 0 55.5 -16t42.5 -42.5t16 -55.5q0 -30 -16 -55.5t-42.5 -41t-55.5 -15.5q-30 0 -56 15t-41 41t-15 56zM51 0v30q50 2 72.5 11.5t31 35t8.5 81.5v742q0 56 -8.5 81.5t-31 35t-72.5 12.5v29q75 -4 236 -4q146 0 225 4v-29 q-50 -3 -72.5 -12.5t-30.5 -35t-8 -81.5v-742q0 -56 8 -81.5t30.5 -35t72.5 -11.5v-30q-79 4 -225 4q-160 0 -236 -4zM352 1257q0 30 15.5 56.5t41.5 42t57 15.5q29 0 55 -16t41.5 -42.5t15.5 -55.5q0 -30 -15.5 -56t-41.5 -41t-55 -15q-31 0 -57 15t-41.5 41t-15.5 56z" />
<glyph unicode="&#x408;" horiz-adv-x="543" d="M-237 -145q0 46 33 74t87 28q53 0 83.5 -26t30.5 -73q0 -34 -19.5 -60t-57.5 -39q15 -10 54 -10q55 0 94.5 29t57.5 78q13 39 19 82t7.5 102t1.5 177v683q0 56 -8.5 81.5t-31.5 35t-72 12.5v29q74 -4 227 -4q151 0 235 4v-29q-51 -3 -73.5 -12.5t-30.5 -35t-8 -81.5v-547 v-89q0 -100 -4.5 -174t-21.5 -127q-20 -70 -71.5 -125.5t-130 -87t-176.5 -31.5q-95 0 -151 28q-74 37 -74 108z" />
<glyph unicode="&#x409;" horiz-adv-x="1469" d="M-21 118q0 38 18 67t49 44.5t69 15.5q50 0 80.5 -24.5t30.5 -67.5q0 -52 -32.5 -87.5t-87.5 -50.5q18 -8 38 -8q106 0 163 127t77.5 301.5t37.5 464.5q1 23 1 33q0 39 -10.5 58t-36.5 27t-75 11v29q62 -4 154 -4q22 0 65.5 2t65.5 2q37 0 103.5 -2t110.5 -2q153 0 231 4 v-29q-54 -3 -78 -12.5t-33.5 -35t-9.5 -81.5v-299h89q154 0 251 -38.5t139.5 -103.5t42.5 -148q0 -86 -42 -154.5t-131.5 -110.5t-227.5 -46h-4h-21q-64 0 -135 4h-83q-163 0 -249 -4v30q60 2 87 11.5t37 35t10 81.5v742q0 54 -10 81.5t-31.5 37.5t-62.5 10h-10 q-37 0 -57.5 -10.5t-31 -38t-14.5 -80.5q-4 -48 -23.5 -326.5t-89 -436.5t-199.5 -158q-45 0 -83 17.5t-60 49t-22 72.5zM910 158q0 -54 8.5 -79.5t31 -35t71.5 -12.5q92 5 127.5 71.5t35.5 193.5q0 134 -47.5 204.5t-167.5 70.5h-59v-413z" />
<glyph unicode="&#x40a;" horiz-adv-x="1587" d="M51 0v30q50 2 72.5 11.5t31 35t8.5 81.5v742q0 56 -8.5 81.5t-31 35t-72.5 12.5v29q75 -4 236 -4q146 0 225 4v-29q-50 -3 -72.5 -12.5t-30.5 -35t-8 -81.5v-352h396v352q0 56 -8.5 81.5t-31.5 35t-72 12.5v29q83 -4 235 -4t227 4v-29q-51 -3 -73.5 -12.5t-31 -35 t-8.5 -81.5v-350h89q227 0 330 -73t103 -193q0 -79 -42.5 -142t-134 -101.5t-232.5 -40.5h-2h-15q-64 0 -136 4h-74q-152 0 -235 -4v30q49 2 72 11.5t31.5 35t8.5 81.5v360h-396v-360q0 -56 8 -81.5t30.5 -35t72.5 -11.5v-30q-79 4 -225 4q-160 0 -236 -4zM1034 158 q0 -55 8 -80t30 -35t69 -13q93 4 130 66t37 176q0 79 -19.5 134t-69.5 85.5t-135 30.5l-50 -1v-363z" />
<glyph unicode="&#x40b;" horiz-adv-x="1339" d="M37 1058q137 -4 462 -4q326 0 461 4q-11 -151 -11 -254q0 -64 5 -113h-34q-25 124 -61 197t-86 104.5t-121 31.5h-34v-496q46 36 128.5 60.5t173.5 24.5q135 0 222 -51q52 -31 73.5 -81t21.5 -130v-200q0 -50 8.5 -75t31 -35t68.5 -11v-30q-70 4 -230 4q-148 0 -219 -4 v30q43 1 64 11t30 35t9 75v242q0 63 -11 99.5t-43.5 54.5t-96.5 18q-66 0 -129 -19.5t-101 -50.5v-325q0 -62 12.5 -90.5t45 -38.5t101.5 -11v-30q-188 4 -284 4q-94 0 -273 -4v30q70 1 102.5 11t45 38.5t12.5 90.5v854h-33q-73 0 -123 -31.5t-85.5 -104t-61.5 -197.5h-34 q5 49 5 113q0 103 -11 254z" />
<glyph unicode="&#x40c;" horiz-adv-x="1078" d="M51 0v30q50 2 72.5 11.5t31 35t8.5 81.5v742q0 56 -8.5 81.5t-31 35t-72.5 12.5v29q76 -4 236 -4q146 0 225 4v-29q-50 -3 -72.5 -12.5t-30.5 -35t-8 -81.5v-335q142 11 195 81q24 31 33.5 71.5t21.5 133.5t40 140q27 49 73.5 69t84.5 20q39 0 73.5 -15t56 -44.5 t21.5 -72.5q0 -59 -38 -94.5t-98 -35.5q-52 0 -81.5 27t-29.5 73q0 43 26.5 75t66.5 40q-8 6 -33 6q-31 -2 -56.5 -19.5t-38.5 -43.5q-23 -39 -34 -125.5t-22.5 -138t-45.5 -90.5t-98 -58q103 -5 174.5 -25.5t116.5 -64t61 -117.5l43 -200q9 -42 18 -65t22 -32.5t33 -9.5 q16 0 29 8.5t29 25.5l20 -18q-40 -46 -86.5 -66.5t-111.5 -20.5q-87 0 -136.5 36t-65.5 126l-41 228q-13 64 -33 99.5t-59.5 53t-110.5 17.5h-19v-381q0 -56 8 -81.5t30.5 -35t72.5 -11.5v-30q-79 4 -225 4q-160 0 -236 -4zM416 1172q47 39 79.5 71t80.5 83.5t82 69.5 q23 12 46 12t43.5 -11.5t31.5 -32.5q9 -16 9 -35q0 -22 -13 -42.5t-37 -33.5q-33 -19 -88 -32.5t-105 -27t-118 -39.5z" />
<glyph unicode="&#x40e;" horiz-adv-x="986" d="M-15 1029v29q60 -4 199 -4q159 0 238 4v-29q-77 -5 -77 -60q0 -25 17 -60l264 -469l151 306q58 115 58 182q0 52 -33 75t-93 26v29q101 -4 185 -4q70 0 115 4v-29q-33 -13 -66 -53t-76 -119l-295 -593l-70 -141q-33 -69 -65 -100q-44 -44 -126 -44q-50 0 -88 16t-58 44 t-20 64q0 35 18 62t48.5 41.5t66.5 14.5q59 0 94 -25t35 -70q0 -41 -28 -69.5t-72 -43.5q8 -4 30 -4q42 0 74 29t60 88l34 70l-421 741q-50 84 -99 92zM156 1314q0 43 33 71t85 28t86.5 -28t34.5 -72q0 -38 -26 -63t-66 -35q40 -17 95.5 -25.5t108.5 -8.5t108.5 9t95.5 27 q-41 11 -65.5 35.5t-24.5 60.5q0 44 34 72t87 28q51 0 84.5 -28t33.5 -71q0 -65 -89 -110q-106 -53 -264 -53t-263 53q-88 45 -88 110z" />
<glyph unicode="&#x40f;" horiz-adv-x="1195" d="M51 0v30q50 2 72.5 11.5t31 35t8.5 81.5v742q0 56 -8.5 81.5t-31 35t-72.5 12.5v29q75 -4 236 -4q146 0 225 4v-29q-50 -3 -72.5 -12.5t-30.5 -35t-8 -81.5v-742q0 -56 9 -82.5t34 -36t78 -9.5h154q53 0 78 9.5t34 36t9 82.5v742q0 56 -8.5 81.5t-31.5 35t-72 12.5v29 q79 -4 225 -4q160 0 237 4v-29q-51 -3 -73.5 -12.5t-31 -35t-8.5 -81.5v-742q0 -56 8.5 -81.5t31 -35t73.5 -11.5v-30q-77 4 -237 4h-68q-95 -5 -153 -67.5t-71 -197.5h-35q-14 135 -71 197.5t-153 67.5h-72q-160 0 -236 -4z" />
<glyph unicode="&#x410;" horiz-adv-x="997" d="M-23 0v30q75 12 129 157l341 874q24 -2 52 -2q29 0 51 2l363 -935q20 -50 45 -72.5t49 -23.5v-30q-89 4 -227 4q-153 0 -227 -4v30q57 2 81 13.5t24 41.5q0 22 -18 70l-90 246h-325l-40 -103q-40 -105 -40 -167q0 -55 32.5 -77t99.5 -24v-30q-101 4 -186 4q-68 0 -114 -4 zM237 431h302l-148 403z" />
<glyph unicode="&#x411;" horiz-adv-x="968" d="M51 0v30q50 2 72.5 11.5t31 35t8.5 81.5v742q0 56 -8.5 81.5t-31 35t-72.5 12.5v29q161 -4 487 -4q207 0 295 4q-11 -120 -11 -221q0 -68 5 -101h-35q-20 108 -52.5 171t-79.5 90t-112 27h-44q-47 0 -68 -7.5t-28 -29t-7 -69.5v-288l88 1q154 0 251 -43.5t140 -114.5 t43 -159q0 -90 -44.5 -160t-140 -111.5t-242.5 -41.5q-32 0 -96.5 1.5t-130.5 1.5q-142 0 -218 -4zM401 158q0 -53 6.5 -79.5t24.5 -37.5t54 -11q72 0 113.5 33t58.5 93.5t17 151.5q0 94 -19.5 158t-67 99.5t-129.5 35.5l-58 -1v-442z" />
<glyph unicode="&#x412;" horiz-adv-x="1004" d="M51 0v30q50 2 72.5 11.5t31 35t8.5 81.5v742q0 56 -8.5 81.5t-31 35t-72.5 12.5v29q75 -4 227 -4q60 0 133 1.5t101 1.5q121 0 204 -29.5t124.5 -82.5t41.5 -123q0 -56 -32 -109t-99.5 -94.5t-167.5 -59.5v-3q133 -10 217.5 -49t122 -95.5t37.5 -121.5 q0 -93 -49.5 -158.5t-142.5 -98.5t-220 -33q-33 0 -110.5 2t-156.5 2q-154 0 -230 -4zM401 158q0 -54 7.5 -79.5t28.5 -35t67 -9.5q208 0 208 262q0 118 -59.5 179.5t-188.5 61.5h-63v-379zM401 562h64q97 0 136 66.5t39 177.5q0 112 -35 167.5t-112 55.5q-40 0 -59 -11 t-26 -37.5t-7 -80.5v-338z" />
<glyph unicode="&#x413;" horiz-adv-x="854" d="M51 0v30q50 2 72.5 11.5t31 35t8.5 81.5v742q0 56 -8.5 81.5t-31 35t-72.5 12.5v29q161 -4 487 -4q202 0 289 4q-11 -124 -11 -227q0 -70 5 -113h-35q-20 114 -53.5 181.5t-82.5 96t-121 28.5h-25q-47 0 -68 -7.5t-28 -29t-7 -69.5v-760q0 -56 9.5 -81.5t36.5 -35 t87 -11.5v-30q-88 4 -247 4q-160 0 -236 -4z" />
<glyph unicode="&#x414;" horiz-adv-x="974" d="M3 30h27q107 0 163 124.5t76.5 291t38.5 454.5q1 11 1 29q0 40 -10.5 60.5t-36 28.5t-75.5 11v29q63 -4 154 -4q23 0 66.5 2t64.5 2q38 0 104 -2t110 -2q154 0 232 4v-29q-54 -3 -78.5 -12.5t-33.5 -35t-9 -81.5v-742q0 -56 8.5 -82.5t31.5 -36t72 -9.5h45 q-11 -107 -11 -194q0 -62 5 -97h-35q-15 97 -47.5 154t-83 82t-123.5 25h-361q-73 0 -123.5 -25t-83.5 -82t-48 -154h-34q4 35 4 97q0 84 -10 194zM131 30h307q53 0 78 9.5t34 36t9 82.5v742q0 54 -10 81.5t-31.5 37.5t-61.5 10h-19q-34 0 -52.5 -10.5t-28.5 -38t-14 -80.5 q-4 -47 -20.5 -278.5t-61.5 -384.5t-129 -207z" />
<glyph unicode="&#x415;" horiz-adv-x="947" d="M51 0v30q50 2 72.5 11.5t31 35t8.5 81.5v742q0 56 -8.5 81.5t-31 35t-72.5 12.5v29q161 -4 487 -4q220 0 312 4q-10 -123 -10 -221q0 -66 5 -101h-35q-15 109 -46.5 171.5t-79.5 89.5t-119 27h-61q-47 0 -68 -7.5t-28 -29t-7 -69.5v-370h47q81 0 121.5 58t56.5 139h35 q-5 -74 -5 -141v-72q0 -76 9 -212h-34q-30 198 -183 198h-47v-377q0 -48 7 -69.5t28 -29.5t68 -8h73q106 0 171 73t92 246h35q-5 -49 -5 -126q0 -137 10 -227q-101 4 -342 4q-326 0 -487 -4z" />
<glyph unicode="&#x416;" horiz-adv-x="1539" d="M17 66l20 18q15 -18 27.5 -26t31.5 -8t31.5 9.5t21.5 32.5t18 65l47 200q14 72 56 116t107.5 64.5t160.5 25.5q-64 19 -97 59q-27 32 -38 79.5t-22 143.5t-31 131q-11 24 -36.5 42.5t-59.5 20.5q-20 2 -33 -6q41 -8 67.5 -38t26.5 -69q0 -51 -30 -79t-81 -28 q-61 0 -99.5 35t-38.5 94q0 43 22 72.5t57 44.5t75 15q39 0 85 -20t72 -69q26 -46 35 -131.5t16.5 -131.5t32.5 -80q51 -71 187 -82v334q0 56 -8.5 81.5t-31.5 35t-72 12.5v29q76 -4 236 -4q146 0 225 4v-29q-50 -3 -72.5 -12.5t-31 -35t-8.5 -81.5v-334q136 12 187 82 q20 28 28.5 67.5t18.5 134.5t37 141q25 49 71 69t86 20t75 -15t57 -44.5t22 -72.5q0 -39 -18 -68.5t-49 -45t-71 -15.5q-51 0 -81.5 28t-30.5 79q0 39 26.5 69t67.5 38q-10 7 -25 7q-35 0 -63.5 -19t-39.5 -45q-21 -35 -31 -123.5t-20 -141.5t-41 -89q-33 -40 -97 -58 q100 -6 169 -26t112 -64t59 -117l43 -200q9 -42 18.5 -65t21.5 -32.5t32 -9.5q31 2 58 34l21 -18q-40 -46 -86.5 -66.5t-112.5 -20.5q-87 0 -136.5 36t-65.5 126l-40 228q-11 63 -30.5 99t-58.5 53.5t-107 17.5h-6v-381q0 -56 8.5 -81.5t31 -35t72.5 -11.5v-30q-79 4 -225 4 q-160 0 -236 -4v30q49 2 72 11.5t31.5 35t8.5 81.5v381h-6q-68 0 -107 -17.5t-59 -53.5t-31 -99l-40 -228q-16 -90 -65.5 -126t-135.5 -36q-62 0 -106.5 20.5t-80.5 66.5z" />
<glyph unicode="&#x417;" horiz-adv-x="900" d="M37 187q0 36 17.5 64.5t46.5 43.5t63 15q54 0 86.5 -31.5t32.5 -88.5q0 -46 -31 -79.5t-85 -46.5q29 -23 81 -37.5t117 -14.5q124 0 193.5 69.5t69.5 199.5q0 71 -22 130.5t-67.5 96.5t-110.5 40q-36 -20 -64 -20q-32 0 -32 25q0 24 34 24q17 0 63 -9q78 31 109 98.5 t31 160.5q0 108 -41.5 158.5t-123.5 50.5q-81 0 -137.5 -42.5t-86.5 -114.5t-36 -163h-34q0 244 -7 347h34q5 -43 13 -61.5t25 -18.5q7 0 13.5 3t22.5 13q40 27 69 43t72.5 27t106.5 11q101 0 178 -27.5t120 -78.5t43 -121q-1 -77 -53.5 -137t-132 -98.5t-163.5 -56.5 q101 -2 194 -33.5t152.5 -93.5t59.5 -150q0 -94 -66.5 -163.5t-174 -105.5t-228.5 -36q-170 0 -268 71q-37 24 -60 59.5t-23 77.5z" />
<glyph unicode="&#x418;" horiz-adv-x="1225" d="M51 0v30q50 2 72.5 11.5t31 35t8.5 81.5v742q0 56 -8.5 81.5t-31 35t-72.5 12.5v29q76 -4 236 -4q146 0 225 4v-29q-50 -3 -72.5 -12.5t-30.5 -35t-8 -81.5v-696l425 721q-1 44 -10.5 64.5t-32 28.5t-68.5 11v29q79 -4 225 -4q160 0 237 4v-29q-51 -3 -73.5 -12.5 t-31 -35t-8.5 -81.5v-742q0 -56 8.5 -81.5t31 -35t73.5 -11.5v-30q-77 4 -237 4q-146 0 -225 -4v30q49 2 72 11.5t31.5 35t8.5 81.5v700l-426 -720q1 -46 10 -68t31.5 -30t69.5 -10v-30q-79 4 -225 4q-160 0 -236 -4z" />
<glyph unicode="&#x419;" horiz-adv-x="1225" d="M51 0v30q50 2 72.5 11.5t31 35t8.5 81.5v742q0 56 -8.5 81.5t-31 35t-72.5 12.5v29q76 -4 236 -4q146 0 225 4v-29q-50 -3 -72.5 -12.5t-30.5 -35t-8 -81.5v-696l425 721q-1 44 -10.5 64.5t-32 28.5t-68.5 11v29q79 -4 225 -4q160 0 237 4v-29q-51 -3 -73.5 -12.5 t-31 -35t-8.5 -81.5v-742q0 -56 8.5 -81.5t31 -35t73.5 -11.5v-30q-77 4 -237 4q-146 0 -225 -4v30q49 2 72 11.5t31.5 35t8.5 81.5v700l-426 -720q1 -46 10 -68t31.5 -30t69.5 -10v-30q-79 4 -225 4q-160 0 -236 -4zM262 1314q0 43 33 71t85 28t86.5 -28t34.5 -72 q0 -38 -26 -63t-66 -35q40 -17 95.5 -25.5t108.5 -8.5t108.5 9t95.5 27q-41 11 -65.5 35.5t-24.5 60.5q0 44 34 72t87 28q51 0 84.5 -28t33.5 -71q0 -65 -89 -110q-106 -53 -264 -53t-263 53q-88 45 -88 110z" />
<glyph unicode="&#x41a;" horiz-adv-x="1078" d="M51 0v30q50 2 72.5 11.5t31 35t8.5 81.5v742q0 56 -8.5 81.5t-31 35t-72.5 12.5v29q76 -4 236 -4q146 0 225 4v-29q-50 -3 -72.5 -12.5t-30.5 -35t-8 -81.5v-335q142 11 195 81q24 31 33.5 71.5t21.5 133.5t40 140q27 49 73.5 69t84.5 20q39 0 73.5 -15t56 -44.5 t21.5 -72.5q0 -59 -38 -94.5t-98 -35.5q-52 0 -81.5 27t-29.5 73q0 43 26.5 75t66.5 40q-8 6 -33 6q-31 -2 -56.5 -19.5t-38.5 -43.5q-23 -39 -34 -125.5t-22.5 -138t-45.5 -90.5t-98 -58q103 -5 174.5 -25.5t116.5 -64t61 -117.5l43 -200q9 -42 18 -65t22 -32.5t33 -9.5 q16 0 29 8.5t29 25.5l20 -18q-40 -46 -86.5 -66.5t-111.5 -20.5q-87 0 -136.5 36t-65.5 126l-41 228q-13 64 -33 99.5t-59.5 53t-110.5 17.5h-19v-381q0 -56 8 -81.5t30.5 -35t72.5 -11.5v-30q-79 4 -225 4q-160 0 -236 -4z" />
<glyph unicode="&#x41b;" horiz-adv-x="1076" d="M-21 118q0 38 18 67t49 44.5t69 15.5q50 0 80.5 -24.5t30.5 -67.5q0 -52 -32.5 -87.5t-87.5 -50.5q18 -8 38 -8q106 0 163 127t77.5 301.5t37.5 464.5q1 23 1 33q0 39 -10.5 58t-36.5 27t-75 11v29q62 -4 154 -4q22 0 65.5 2t65.5 2q37 0 103.5 -2t110.5 -2q153 0 231 4 v-29q-54 -3 -78 -12.5t-33.5 -35t-9.5 -81.5v-742q0 -56 9.5 -81.5t33.5 -35t78 -11.5v-30q-78 4 -243 4q-163 0 -249 -4v30q60 2 87 11.5t37 35t10 81.5v742q0 54 -10 81.5t-31.5 37.5t-62.5 10h-10q-37 0 -57.5 -10.5t-31 -38t-14.5 -80.5q-4 -48 -23.5 -326.5t-89 -436.5 t-199.5 -158q-45 0 -83 17.5t-60 49t-22 72.5z" />
<glyph unicode="&#x41c;" horiz-adv-x="1385" d="M53 0v30q48 6 71 25t31.5 57t8.5 115v673q0 56 -8.5 81.5t-31 35t-71.5 12.5v29q47 -4 129 -4q138 0 236 4l302 -726l276 722h106q151 0 235 4v-29q-51 -3 -73.5 -12.5t-31 -35t-8.5 -81.5v-742q0 -56 8.5 -81.5t31.5 -35t73 -11.5v-30q-84 4 -235 4q-160 0 -236 -4v30 q54 2 78.5 11.5t33.5 35t9 81.5v782l-361 -941h-24l-403 962v-716q0 -88 9.5 -129.5t39 -60.5t96.5 -25v-30q-58 4 -162 4q-82 0 -129 -4z" />
<glyph unicode="&#x41d;" horiz-adv-x="1195" d="M51 0v30q50 2 72.5 11.5t31 35t8.5 81.5v742q0 56 -8.5 81.5t-31 35t-72.5 12.5v29q75 -4 236 -4q146 0 225 4v-29q-50 -3 -72.5 -12.5t-30.5 -35t-8 -81.5v-352h396v352q0 56 -8.5 81.5t-31.5 35t-72 12.5v29q83 -4 235 -4t227 4v-29q-51 -3 -73.5 -12.5t-31 -35 t-8.5 -81.5v-742q0 -56 8.5 -81.5t31 -35t73.5 -11.5v-30q-75 4 -227 4t-235 -4v30q49 2 72 11.5t31.5 35t8.5 81.5v360h-396v-360q0 -56 8 -81.5t30.5 -35t72.5 -11.5v-30q-79 4 -225 4q-160 0 -236 -4z" />
<glyph unicode="&#x41e;" horiz-adv-x="1185" d="M64 520q0 165 67.5 292.5t187.5 197.5t274 70q158 0 277.5 -64.5t185 -186.5t65.5 -291q0 -165 -67.5 -292t-188 -197t-273.5 -70q-158 0 -277.5 64t-185 186.5t-65.5 290.5zM312 526q0 -155 38 -273.5t103 -182.5t145 -64q82 0 144.5 66.5t96.5 186t34 273.5 q0 155 -38 273.5t-103.5 183t-143.5 64.5q-83 0 -145.5 -67t-96.5 -186.5t-34 -273.5z" />
<glyph unicode="&#x41f;" horiz-adv-x="1195" d="M51 0v30q50 2 72.5 11.5t31 35t8.5 81.5v742q0 56 -8.5 81.5t-31 35t-72.5 12.5v29q75 -4 236 -4q66 0 174.5 2t139.5 2q30 0 137 -2t172 -2q160 0 237 4v-29q-51 -3 -73.5 -12.5t-31 -35t-8.5 -81.5v-742q0 -56 8.5 -81.5t31 -35t73.5 -11.5v-30q-77 4 -237 4 q-146 0 -225 -4v30q49 2 72 11.5t31.5 35t8.5 81.5v742q0 56 -9 83t-34 36.5t-78 9.5h-154q-53 0 -78 -9.5t-34 -36.5t-9 -83v-742q0 -56 8 -81.5t30.5 -35t72.5 -11.5v-30q-79 4 -225 4q-160 0 -236 -4z" />
<glyph unicode="&#x420;" horiz-adv-x="958" d="M51 0v30q50 2 72.5 11.5t31 35t8.5 81.5v742q0 56 -8.5 81.5t-31 35t-72.5 12.5v29q75 -4 227 -4q60 0 133 1.5t101 1.5q136 0 229 -37t139.5 -103.5t46.5 -154.5q0 -82 -41.5 -157.5t-141.5 -126t-264 -50.5h-79v-261q0 -60 12.5 -87t45 -36.5t102.5 -10.5v-33 q-184 4 -274 4q-43 0 -236 -4zM401 458h64q122 0 168 77.5t46 210.5q0 145 -43 214t-143 69q-40 0 -59 -11t-26 -37.5t-7 -80.5v-442z" />
<glyph unicode="&#x421;" horiz-adv-x="1054" d="M64 520q0 165 67.5 292.5t187.5 197.5t274 70q90 0 153 -25.5t123 -71.5q16 -14 29 -14q31 0 38 89h34q-6 -101 -6 -362h-34q-9 76 -20.5 123t-33 82.5t-58.5 65.5q-38 36 -87.5 54.5t-102.5 18.5q-103 0 -169.5 -70.5t-97 -187t-30.5 -256.5t32 -256t100 -185.5 t171 -69.5q51 0 101 19t84 54q38 30 59.5 68t32 88.5t19.5 132.5h34q0 -271 6 -377h-34q-4 47 -12.5 67.5t-24.5 20.5q-11 0 -30 -12q-44 -31 -81.5 -51.5t-86 -33t-109.5 -12.5q-158 0 -277.5 64t-185 186.5t-65.5 290.5z" />
<glyph unicode="&#x422;" horiz-adv-x="998" d="M37 1058q137 -4 462 -4q326 0 461 4q-11 -151 -11 -254q0 -64 5 -113h-34q-25 124 -61 197t-86 104.5t-121 31.5h-34v-854q0 -62 12.5 -90.5t45 -38.5t101.5 -11v-30q-188 4 -284 4q-94 0 -273 -4v30q70 1 102.5 11t45 38.5t12.5 90.5v854h-33q-73 0 -123 -31.5 t-85.5 -104t-61.5 -197.5h-34q5 49 5 113q0 103 -11 254z" />
<glyph unicode="&#x423;" horiz-adv-x="986" d="M-15 1029v29q60 -4 199 -4q159 0 238 4v-29q-77 -5 -77 -60q0 -25 17 -60l264 -469l151 306q58 115 58 182q0 52 -33 75t-93 26v29q101 -4 185 -4q70 0 115 4v-29q-33 -13 -66 -53t-76 -119l-295 -593l-70 -141q-33 -69 -65 -100q-44 -44 -126 -44q-50 0 -88 16t-58 44 t-20 64q0 35 18 62t48.5 41.5t66.5 14.5q59 0 94 -25t35 -70q0 -41 -28 -69.5t-72 -43.5q8 -4 30 -4q42 0 74 29t60 88l34 70l-421 741q-50 84 -99 92z" />
<glyph unicode="&#x424;" horiz-adv-x="1379" d="M24 535q0 118 64.5 208t187.5 144.5t296 68.5v54q0 57 -8 82.5t-30.5 35t-72.5 12.5v29q70 -5 235 -5q151 0 227 5v-29q-51 -3 -73.5 -12.5t-31 -35t-8.5 -82.5v-54q266 -19 406 -124.5t140 -293.5q0 -122 -64 -214.5t-186.5 -149t-295.5 -70.5v-56q0 -57 8.5 -82 t31 -34.5t73.5 -12.5v-30q-76 5 -227 5q-165 0 -235 -5v30q50 3 72.5 12.5t30.5 35t8 81.5v55q-266 19 -407 128.5t-141 303.5zM272 541q0 -188 74 -287t226 -124v800q-157 -22 -228.5 -116t-71.5 -273zM810 129q157 24 227.5 121.5t70.5 281.5q0 181 -73 276.5t-225 120.5 v-800z" />
<glyph unicode="&#x425;" horiz-adv-x="1032" d="M4 1029v31q167 -6 214 -6q131 0 229 6v-31q-50 0 -72.5 -7t-22.5 -22q0 -12 12 -28l222 -325l110 149q71 91 71 150q0 37 -28 58t-81 25v29q85 -4 188 -4q91 0 138 4v-29q-47 -14 -95.5 -56t-92.5 -101l-191 -254l351 -512q20 -30 33.5 -45t27.5 -21.5t34 -8.5v-31 q-157 6 -205 6q-54 0 -241 -6v31q53 0 76 5.5t23 19.5q0 10 -10 26l-252 370l-119 -164q-69 -92 -69 -157q0 -46 33.5 -71.5t93.5 -29.5v-30q-85 4 -236 4q-90 0 -138 -4v30q105 34 217 182l199 268l-323 474q-21 31 -34 45.5t-26.5 21t-35.5 8.5z" />
<glyph unicode="&#x426;" horiz-adv-x="1209" d="M51 0v30q50 2 72.5 11.5t31 35t8.5 81.5v742q0 56 -8.5 81.5t-31 35t-72.5 12.5v29q75 -4 236 -4q146 0 225 4v-29q-50 -3 -72.5 -12.5t-30.5 -35t-8 -81.5v-742q0 -56 9 -82.5t34 -36t78 -9.5h154q53 0 78 9.5t34 36t9 82.5v742q0 56 -8.5 81.5t-31.5 35t-72 12.5v29 q79 -4 225 -4q160 0 237 4v-29q-51 -3 -73.5 -12.5t-31 -35t-8.5 -81.5v-742q0 -57 8.5 -83t31.5 -35.5t73 -9.5h44q-10 -110 -10 -194q0 -62 5 -97h-35q-15 97 -48 154t-83.5 82t-122.5 25h-299q-31 0 -138 2t-173 2q-160 0 -236 -4z" />
<glyph unicode="&#x427;" horiz-adv-x="1121" d="M15 1029v29q72 -4 229 -4q149 0 221 4v-29q-43 -2 -64.5 -12t-30 -34.5t-8.5 -75.5v-295q0 -64 10.5 -100t42 -54.5t95.5 -18.5q59 0 116 11.5t96 30.5v419q0 56 -8.5 81.5t-31 35t-72.5 12.5v29q75 -4 236 -4q145 0 226 4v-29q-51 -3 -73.5 -12.5t-30.5 -35t-8 -81.5 v-742q0 -56 8 -81.5t30.5 -35t73.5 -11.5v-30q-197 4 -238 4q-88 0 -272 -4v33q70 1 102.5 10.5t45 36.5t12.5 87v286q-47 -24 -125.5 -42.5t-161.5 -18.5q-138 0 -221 52q-50 32 -70 80t-20 129v254q0 51 -9 75.5t-32 34.5t-68 12z" />
<glyph unicode="&#x428;" horiz-adv-x="1646" d="M51 0v30q50 2 72.5 11.5t31 35t8.5 81.5v742q0 56 -8.5 81.5t-31 35t-72.5 12.5v29q75 -4 236 -4q134 0 211 4v-29q-45 -3 -64 -12.5t-26 -34.5t-7 -82v-742q0 -56 9 -82.5t34 -36t78 -9.5h61q53 0 78 9.5t34 36t9 82.5v742q0 57 -6.5 82t-26.5 34.5t-64 12.5v29 q76 -4 211 -4q149 0 221 4v-29q-44 -3 -63.5 -12.5t-26.5 -35t-7 -81.5v-742q0 -54 10 -81t35 -36.5t76 -10.5h61q53 0 78 9.5t34 36t9 82.5v742q0 57 -6.5 82t-26 34.5t-64.5 12.5v29q76 -4 211 -4q161 0 236 4v-29q-50 -3 -72.5 -12.5t-31 -35t-8.5 -81.5v-742 q0 -56 8.5 -81.5t31 -35t72.5 -11.5v-30q-71 4 -227 4q-52 0 -144.5 -2t-123.5 -2q-34 0 -130 2t-141 2q-49 0 -146 -2t-135 -2q-33 0 -125.5 2t-144.5 2q-155 0 -227 -4z" />
<glyph unicode="&#x429;" horiz-adv-x="1659" d="M51 0v30q50 2 72.5 11.5t31 35t8.5 81.5v742q0 56 -8.5 81.5t-31 35t-72.5 12.5v29q75 -4 236 -4q134 0 211 4v-29q-45 -3 -64 -12.5t-26 -34.5t-7 -82v-742q0 -56 9 -82.5t34 -36t78 -9.5h61q53 0 78 9.5t34 36t9 82.5v742q0 57 -6.5 82t-26.5 34.5t-64 12.5v29 q76 -4 211 -4q149 0 221 4v-29q-44 -3 -63.5 -12.5t-26.5 -35t-7 -81.5v-742q0 -55 10 -81.5t35.5 -36.5t75.5 -10h61q53 0 78 9.5t34 36t9 82.5v742q0 57 -6.5 82t-26 34.5t-64.5 12.5v29q76 -4 211 -4q161 0 236 4v-29q-50 -3 -72.5 -12.5t-31 -35t-8.5 -81.5v-742 q0 -56 8.5 -82.5t31.5 -36t72 -9.5h47q-11 -107 -11 -194q0 -64 5 -97h-35q-15 97 -47.5 154t-83 82t-123.5 25h-247q-34 0 -130 2t-141 2q-49 0 -146 -2t-135 -2q-33 0 -125.5 2t-144.5 2q-155 0 -227 -4z" />
<glyph unicode="&#x42a;" horiz-adv-x="1182" d="M31 1058q106 -4 362 -4q245 0 357 4v-29q-55 -3 -80 -12.5t-34.5 -35t-9.5 -81.5v-270l89 1q154 0 251 -43t139.5 -113t42.5 -155q0 -88 -44.5 -160t-140 -115.5t-241.5 -43.5q-32 0 -97 1.5t-123 1.5q-149 0 -225 -4v30q49 2 72 11.5t31 35t8 81.5v866h-50 q-110 0 -179 -71t-87 -235h-35q5 51 5 131q0 113 -11 209zM626 158q0 -54 6.5 -80.5t25 -37t55.5 -10.5q105 0 146 70t41 208q0 141 -46.5 217t-162.5 76l-65 -1v-442z" />
<glyph unicode="&#x42b;" horiz-adv-x="1519" d="M51 0v30q50 2 72.5 11.5t31 35t8.5 81.5v742q0 56 -8.5 81.5t-31 35t-72.5 12.5v29q75 -4 236 -4q146 0 225 4v-29q-50 -3 -72.5 -12.5t-30.5 -35t-8 -81.5v-742q0 -56 8 -81.5t30.5 -35t72.5 -11.5v-30q-79 4 -225 4q-160 0 -236 -4zM613 0v30q50 2 72.5 11.5t31 35 t8.5 81.5v742q0 56 -8.5 81.5t-31 35t-72.5 12.5v29q75 -4 236 -4q152 0 238 4v-29q-56 -3 -81 -12.5t-34 -34.5t-9 -82v-270l88 1q228 0 331 -83.5t103 -218.5q0 -91 -44.5 -165t-140.5 -118.5t-242 -44.5q-32 0 -97 1.5t-124 1.5q-148 0 -224 -4zM963 158q0 -54 6.5 -80.5 t24.5 -37t56 -10.5q103 0 145 70t42 208q0 141 -47 217t-163 76l-64 -1v-442z" />
<glyph unicode="&#x42c;" horiz-adv-x="957" d="M51 0v30q50 2 72.5 11.5t31 35t8.5 81.5v742q0 56 -8.5 81.5t-31 35t-72.5 12.5v29q75 -4 236 -4q152 0 238 4v-29q-56 -3 -81 -12.5t-34 -34.5t-9 -82v-270l88 1q228 0 331 -83.5t103 -218.5q0 -91 -44.5 -165t-140.5 -118.5t-242 -44.5q-32 0 -97 1.5t-124 1.5 q-148 0 -224 -4zM401 158q0 -54 6.5 -80.5t24.5 -37t56 -10.5q103 0 145 70t42 208q0 141 -47 217t-163 76l-64 -1v-442z" />
<glyph unicode="&#x42d;" horiz-adv-x="1055" d="M84 0q6 90 6 323h34q18 -89 42 -141.5t69 -90.5q34 -35 84 -53t101 -18q103 0 171 69t100 184.5t32 255.5v60q-27 -94 -77.5 -143.5t-110.5 -49.5q-40 0 -73 15t-97.5 57t-113.5 42q-34 0 -65.5 -24t-44.5 -75l-26 7q13 85 42 143t68.5 87t85.5 29q40 0 73 -14.5 t96.5 -56.5t115.5 -42q38 0 70.5 19t53.5 58q-13 183 -76.5 293.5t-192.5 110.5q-56 0 -114 -19.5t-93 -55.5q-36 -30 -57 -63t-34 -78.5t-22 -113.5h-34q0 246 -6 343h35q3 -45 12 -66.5t25 -21.5q11 0 30 13q131 97 295 97q155 0 268 -66.5t173.5 -190.5t60.5 -292 q0 -167 -65 -292t-184.5 -192.5t-278.5 -67.5q-88 0 -151 25.5t-126 71.5q-17 13 -29 13q-30 0 -38 -89h-34z" />
<glyph unicode="&#x42e;" horiz-adv-x="1614" d="M51 0v30q50 2 72.5 11.5t31 35t8.5 81.5v742q0 56 -8.5 81.5t-31 35t-72.5 12.5v29q75 -4 236 -4q146 0 225 4v-29q-50 -3 -72.5 -12.5t-30.5 -35t-8 -81.5v-356h158q5 158 69.5 280t175.5 189t252 67q148 0 259.5 -64.5t173.5 -186.5t62 -291q0 -165 -63.5 -292 t-176.5 -197t-257 -70q-148 0 -259.5 63.5t-172.5 184t-63 288.5h-158v-357q0 -56 8 -81.5t30.5 -35t72.5 -11.5v-30q-79 4 -225 4q-160 0 -236 -4zM807 526q0 -155 34 -273.5t91.5 -182.5t127.5 -64q72 0 127 66.5t85 186t30 273.5q0 155 -34 273.5t-91.5 183t-126.5 64.5 q-73 0 -128 -67t-85 -186.5t-30 -273.5z" />
<glyph unicode="&#x42f;" horiz-adv-x="1032" d="M-28 66l21 18q15 -17 28 -25.5t32 -8.5q27 0 42.5 23t27.5 84l31 154q12 63 47 102t92 60.5t146 33.5h6q-184 19 -261 94.5t-77 186.5q0 130 104.5 199.5t310.5 69.5q28 0 100.5 -1.5t133.5 -1.5q151 0 228 4v-29q-50 -3 -73 -12.5t-31 -35t-8 -81.5v-742q0 -56 8 -81.5 t31 -35t73 -11.5v-30q-77 4 -236 4q-146 0 -226 -4v30q50 2 72.5 11.5t31 35t8.5 81.5v344h-100q-45 0 -71.5 -26t-41 -70.5t-26.5 -115.5l-27 -149q-16 -89 -66 -125.5t-135 -36.5q-64 0 -111 20.5t-84 66.5zM356 785q0 -78 17.5 -133.5t64.5 -87.5t131 -32h65v368 q0 53 -7.5 80t-27 38t-58.5 11q-99 0 -142 -62.5t-43 -181.5z" />
<glyph unicode="&#x430;" horiz-adv-x="937" d="M-17 0v30q37 7 67 44.5t65 115.5l316 722q17 -2 34 -2q18 0 34 2l356 -786q44 -94 94 -96v-30q-71 4 -196 4q-160 0 -235 -4v30q48 2 72 15t24 43q0 27 -19 67l-75 171h-314l-18 -41q-42 -96 -42 -154q0 -51 33 -74t98 -27v-30q-86 4 -173 4q-81 0 -121 -4zM219 356h288 l-143 327z" />
<glyph unicode="&#x431;" horiz-adv-x="949" d="M51 0v30q50 2 72.5 11.5t31 35t8.5 81.5v592q0 57 -8 82.5t-30.5 35t-73.5 11.5v30q69 -5 206 -5q76 0 164.5 1.5t109.5 1.5q194 0 282 2q-10 -100 -10 -180q0 -58 4 -92h-34q-22 128 -78 183t-153 55h-67q-33 0 -50.5 -7.5t-25 -28t-7.5 -62.5v-257h58q235 0 343.5 -63 t108.5 -188q0 -129 -97.5 -198.5t-293.5 -69.5q-31 0 -109.5 1.5t-148.5 1.5q-133 0 -202 -4zM392 158q0 -53 7 -79.5t25 -37t56 -10.5q96 0 139 57t43 173q0 109 -48 170t-163 61h-59v-334z" />
<glyph unicode="&#x432;" horiz-adv-x="970" d="M51 0v30q50 2 73 11.5t31 35t8 81.5v592q0 57 -8.5 82.5t-31 35t-72.5 11.5v30q69 -5 200 -5q61 0 135.5 1.5t102.5 1.5q180 0 267 -52.5t87 -151.5q0 -77 -62.5 -131t-203.5 -84v-3q188 -20 266 -83t78 -157q0 -76 -46 -131.5t-135.5 -84.5t-216.5 -29q-31 0 -110 2 t-159 2q-134 0 -203 -4zM392 158q0 -54 6 -79.5t22.5 -35t50.5 -9.5q109 0 160 55t51 162q0 104 -51.5 157.5t-164.5 53.5h-74v-304zM392 488h49q96 0 132.5 52t36.5 146q0 97 -33 145t-108 48q-32 0 -48.5 -10.5t-22.5 -37.5t-6 -81v-262z" />
<glyph unicode="&#x433;" horiz-adv-x="823" d="M51 0v30q50 2 73 11.5t31 35t8 81.5v592q0 57 -8 82.5t-30.5 35t-73.5 11.5v30q206 -5 226 -5q57 0 130.5 1.5t112.5 1.5q178 0 262 2q-10 -122 -10 -218q0 -73 4 -123h-34q-16 114 -47 180.5t-80 96.5t-122 30h-15q-35 0 -53 -7t-25.5 -28t-7.5 -64v-609q0 -56 14 -84 t47 -39.5t99 -13.5v-30q-92 4 -265 4q-160 0 -236 -4z" />
<glyph unicode="&#x434;" horiz-adv-x="965" d="M6 30h42q107 0 163.5 104.5t77 245t37.5 370.5q1 27 1 35q0 38 -11 57t-36 27t-75 10v30q40 -3 145 -3q16 0 47 1.5t54 1.5q60 0 126 -2.5t98 -2.5q146 0 222 5v-30q-50 -2 -72.5 -11.5t-31 -35t-8.5 -82.5v-592q0 -56 8.5 -82.5t31.5 -36t72 -9.5h46q-10 -110 -10 -194 q0 -62 4 -97h-34q-15 97 -48 154t-83.5 82t-122.5 25h-348q-73 0 -123.5 -25t-83.5 -82t-48 -154h-34q5 41 5 97q0 76 -11 194zM157 30h282q51 0 74.5 9.5t33 36t9.5 82.5v592q0 58 -6.5 84.5t-24.5 35.5t-57 9h-20q-38 0 -54.5 -10t-22 -34t-10.5 -85q-5 -51 -19 -231.5 t-58.5 -310.5t-126.5 -178z" />
<glyph unicode="&#x435;" horiz-adv-x="910" d="M51 0v30q50 2 73 11.5t31 35t8 81.5v592q0 57 -8.5 82.5t-31 35t-72.5 11.5v30q156 -5 464 -5q208 0 297 5q-10 -100 -10 -180q0 -58 4 -92h-34q-16 87 -46 139.5t-75.5 75.5t-109.5 23h-55q-39 0 -58 -7t-27.5 -27t-8.5 -64v-305h70q69 0 104 48.5t47 113.5h35 q-6 -59 -6 -116l1 -60q0 -67 9 -177h-34q-11 71 -47.5 116t-108.5 45h-70v-311q0 -43 8.5 -63t27.5 -27t58 -7h64q71 0 121 26t82 85t49 157h34q-5 -42 -5 -108q0 -86 11 -194q-97 4 -327 4q-308 0 -464 -4z" />
<glyph unicode="&#x436;" horiz-adv-x="1506" d="M23 66l19 18q16 -18 28.5 -26t30.5 -8q17 0 29 8.5t23 32t22 66.5l36 137q26 103 114.5 144.5t217.5 49.5q-61 24 -90.5 74t-52.5 122t-32 96q-18 50 -41 75t-56 31q-16 2 -20 2q-12 0 -21 -5q41 -8 67.5 -36.5t26.5 -67.5q0 -50 -29.5 -79.5t-82.5 -29.5q-60 0 -99 34.5 t-39 92.5q0 45 22 75t57 44t75 14q58 0 100.5 -34.5t67.5 -96.5q9 -27 34.5 -118t69 -136t126.5 -53h10v258q0 57 -8.5 82.5t-30.5 35t-73 11.5v30q73 -5 232 -5q145 0 221 5v-30q-51 -2 -73.5 -11.5t-30.5 -35t-8 -82.5v-258h9q101 10 140 61.5t62 133.5t34 112 q54 131 167 131q40 0 75 -14t57 -44t22 -75q0 -58 -39 -92.5t-98 -34.5q-53 0 -83 29.5t-30 79.5q0 39 26.5 67.5t67.5 36.5q-8 5 -21 5q-4 0 -19 -2q-33 -6 -56 -31t-41 -75q-10 -26 -35.5 -105t-57 -123t-85.5 -64q132 -8 222 -50t117 -144l36 -137q11 -44 21.5 -67 t22 -31.5t28.5 -8.5q18 0 31 8t29 26l19 -18q-37 -46 -83.5 -66.5t-111.5 -20.5q-54 0 -92.5 13.5t-66.5 49t-42 99.5l-43 201q-11 43 -27 69.5t-45 40t-78 13.5h-32v-307q0 -56 8 -81.5t30.5 -35t73.5 -11.5v-30q-76 4 -221 4q-159 0 -232 -4v30q51 2 73.5 11.5t30.5 35 t8 81.5v307h-35q-50 0 -79.5 -13.5t-45 -40t-26.5 -69.5l-43 -201q-14 -64 -41.5 -99.5t-66.5 -49t-94 -13.5q-60 0 -104.5 21t-77.5 66z" />
<glyph unicode="&#x437;" horiz-adv-x="827" d="M39 144q0 46 30.5 75t83.5 29q52 0 85.5 -28.5t33.5 -75.5q0 -40 -25 -68t-65 -39q15 -12 52.5 -21t77.5 -9q116 0 172.5 63t56.5 169q0 86 -35 147t-99 79q-22 7 -51 7q-36 -19 -65 -19q-31 0 -31 25q0 24 33 24q23 0 64 -9q69 25 97.5 78t28.5 139q0 92 -31.5 136 t-100.5 44q-63 0 -110.5 -34t-73.5 -94.5t-31 -141.5h-35q0 212 -7 300h34q6 -35 12.5 -51t22.5 -16q14 0 49 20q29 18 53.5 29t62.5 19.5t89 8.5q89 0 158 -23t108 -67.5t39 -106.5q0 -69 -47 -121t-125 -83t-170 -43q105 0 196 -25.5t147 -79t56 -134.5q0 -83 -53 -143.5 t-151 -92.5t-231 -32q-148 0 -232 49q-35 21 -54 51t-19 65z" />
<glyph unicode="&#x438;" horiz-adv-x="1197" d="M51 0v30q50 2 73 11.5t31 35t8 81.5v592q0 57 -8.5 82.5t-31 35t-72.5 11.5v30q71 -5 218 -5q151 0 235 5v-30q-51 -2 -73.5 -11.5t-30.5 -35t-8 -82.5v-570l414 588q-2 47 -11.5 69.5t-31.5 31t-69 10.5v30q83 -5 235 -5q57 0 124.5 2.5t93.5 2.5v-30 q-51 -2 -73.5 -11.5t-31 -35t-8.5 -82.5v-592q0 -56 8.5 -81.5t31.5 -35t73 -11.5v-30q-70 4 -218 4q-152 0 -235 -4v30q50 2 72.5 11.5t31 35t8.5 81.5v553l-413 -585q2 -41 12 -60t32 -26.5t67 -9.5v-30q-84 4 -235 4q-147 0 -218 -4z" />
<glyph unicode="&#x439;" horiz-adv-x="1197" d="M51 0v30q50 2 73 11.5t31 35t8 81.5v592q0 57 -8.5 82.5t-31 35t-72.5 11.5v30q71 -5 218 -5q151 0 235 5v-30q-51 -2 -73.5 -11.5t-30.5 -35t-8 -82.5v-570l414 588q-2 47 -11.5 69.5t-31.5 31t-69 10.5v30q83 -5 235 -5q57 0 124.5 2.5t93.5 2.5v-30 q-51 -2 -73.5 -11.5t-31 -35t-8.5 -82.5v-592q0 -56 8.5 -81.5t31.5 -35t73 -11.5v-30q-70 4 -218 4q-152 0 -235 -4v30q50 2 72.5 11.5t31 35t8.5 81.5v553l-413 -585q2 -41 12 -60t32 -26.5t67 -9.5v-30q-84 4 -235 4q-147 0 -218 -4zM250 1194q0 28 15 50.5t42 36 t61 13.5q52 0 86.5 -28.5t34.5 -72.5q0 -37 -25.5 -62t-66.5 -35q74 -35 204 -35q132 0 204 36q-41 10 -65.5 34.5t-24.5 61.5q0 28 15.5 51t43.5 36.5t62 13.5t61 -13t42 -35.5t15 -51.5q0 -65 -89 -110q-100 -53 -264 -53q-163 0 -263 53q-88 43 -88 110z" />
<glyph unicode="&#x43a;" horiz-adv-x="1058" d="M51 0v30q50 2 73 11.5t31 35t8 81.5v592q0 57 -8.5 82.5t-31 35t-72.5 11.5v30q73 -5 232 -5q145 0 221 5v-30q-51 -2 -73.5 -11.5t-30.5 -35t-8 -82.5v-258l25 -1q105 10 145 61.5t64 134t36 112.5q24 62 67 96.5t101 34.5q40 0 75 -14t57 -44t22 -75q0 -58 -38.5 -92.5 t-99.5 -34.5q-52 0 -82 29.5t-30 79.5q0 39 27 67.5t68 36.5q-11 5 -22 5q-3 0 -19 -2q-34 -6 -57 -31t-42 -75q-9 -25 -34.5 -104t-58 -123t-88.5 -65q134 -8 224.5 -49.5t117.5 -144.5l35 -137q11 -44 21.5 -67t22 -31.5t28.5 -8.5q18 0 31.5 8.5t28.5 25.5l20 -18 q-36 -46 -83 -66.5t-111 -20.5q-55 0 -94 13.5t-66 49t-41 99.5l-40 173q-11 50 -27 81t-50.5 50.5t-96.5 19.5h-36v-307q0 -56 8 -81.5t30.5 -35t73.5 -11.5v-30q-76 4 -221 4q-159 0 -232 -4z" />
<glyph unicode="&#x43b;" horiz-adv-x="1052" d="M-10 118q0 38 18 67t48.5 44.5t67.5 15.5q50 0 80.5 -24.5t30.5 -67.5q0 -52 -33 -88t-85 -50q14 -8 36 -8q106 0 162.5 106.5t77.5 251.5t38 385q1 24 1 33q0 39 -11 58.5t-36.5 27.5t-74.5 10v30q38 -3 145 -3q17 0 50 1.5t57 1.5q58 0 122 -2.5t95 -2.5q147 0 223 5 v-30q-52 -2 -74 -11.5t-30 -35t-8 -82.5v-592q0 -56 8 -81.5t30.5 -35t73.5 -11.5v-30q-73 4 -220 4q-157 0 -233 -4v30q50 2 73 11.5t31 35t8 81.5v592q0 58 -6.5 84.5t-24.5 35.5t-58 9h-19q-38 0 -55 -10t-23 -34.5t-10 -84.5q-4 -40 -23.5 -272.5t-89 -365.5 t-199.5 -133q-45 0 -82 17.5t-59 49t-22 72.5z" />
<glyph unicode="&#x43c;" horiz-adv-x="1318" d="M45 879v30q78 -5 238 -5q76 0 132 5l249 -597l249 592h134q144 0 225 5v-30q-54 -2 -78.5 -11.5t-33.5 -35t-9 -82.5v-592q0 -56 9 -81.5t33.5 -35t78.5 -11.5v-30q-81 4 -225 4q-174 0 -255 -4v30q54 2 78.5 11.5t33.5 35t9 81.5v657l-342 -822h-23l-348 820v-613 q0 -66 12 -99t44 -49t98 -22v-30q-64 4 -170 4q-83 0 -130 -4v30q49 6 72.5 22t31.5 49t8 99v550q0 57 -9.5 82.5t-33.5 35t-78 11.5z" />
<glyph unicode="&#x43d;" horiz-adv-x="1167" d="M51 0v30q50 2 73 11.5t31 35t8 81.5v592q0 57 -8.5 82.5t-31 35t-72.5 11.5v30q72 -5 218 -5q151 0 235 5v-30q-51 -2 -73.5 -11.5t-30.5 -35t-8 -82.5v-272h384v272q0 57 -8.5 82.5t-31 35t-72.5 11.5v30q83 -5 235 -5q148 0 218 5v-30q-51 -2 -73.5 -11.5t-31 -35 t-8.5 -82.5v-592q0 -56 8.5 -81.5t31.5 -35t73 -11.5v-30q-70 4 -218 4q-152 0 -235 -4v30q50 2 72.5 11.5t31 35t8.5 81.5v290h-384v-290q0 -56 8.5 -81.5t31 -35t72.5 -11.5v-30q-84 4 -235 4q-146 0 -218 -4z" />
<glyph unicode="&#x43e;" horiz-adv-x="1134" d="M63 445q0 143 64 253.5t179 171t262 60.5q151 0 265 -55t176.5 -160t62.5 -251q0 -144 -64.5 -253.5t-179.5 -170.5t-262 -61q-151 0 -264.5 55t-176 160t-62.5 251zM302 451q0 -133 36 -234t98 -156t136 -55q78 0 137.5 57t91.5 160t32 235q0 133 -36 234.5t-98 156 t-137 54.5q-78 0 -137 -57.5t-91 -160t-32 -234.5z" />
<glyph unicode="&#x43f;" horiz-adv-x="1167" d="M51 0v30q50 2 73 11.5t31 35t8 81.5v592q0 57 -8.5 82.5t-31 35t-72.5 11.5v30q72 -5 218 -5q41 0 143.5 2.5t172.5 2.5t171.5 -2.5t142.5 -2.5q148 0 218 5v-30q-51 -2 -73.5 -11.5t-31 -35t-8.5 -82.5v-592q0 -56 8.5 -81.5t31.5 -35t73 -11.5v-30q-70 4 -218 4 q-152 0 -235 -4v30q50 2 72.5 11.5t31 35t8.5 81.5v592q0 57 -9 83.5t-32 36t-71 9.5h-160q-50 0 -73 -9.5t-31 -36t-8 -83.5v-592q0 -56 8.5 -81.5t31 -35t72.5 -11.5v-30q-84 4 -235 4q-146 0 -218 -4z" />
<glyph unicode="&#x440;" horiz-adv-x="921" d="M51 0v30q50 2 73 11.5t31 35t8 81.5v592q0 57 -8.5 82.5t-31 35t-72.5 11.5v30q69 -5 200 -5q64 0 143.5 1.5t109.5 1.5q195 0 289.5 -65t94.5 -184q0 -76 -39 -141t-136 -107t-257 -42h-64v-210q0 -56 9 -81.5t33 -35t78 -11.5v-30q-86 4 -252 4q-140 0 -209 -4z M392 398h49q119 0 163.5 65.5t44.5 178.5q0 121 -38 179t-126 58q-40 0 -59 -10.5t-26.5 -37.5t-7.5 -81v-352z" />
<glyph unicode="&#x441;" horiz-adv-x="982" d="M64 445q0 143 62.5 253t171.5 171t244 61q61 0 106.5 -13t77 -33t68.5 -51q18 -15 29 -15q30 0 38 91h35q-6 -90 -6 -314h-35q-15 80 -30 117.5t-45 73.5q-43 50 -95.5 77.5t-109.5 27.5q-82 0 -143.5 -53t-94.5 -152t-33 -235q0 -137 36.5 -235t101 -148t144.5 -50 q59 0 115 27.5t96 77.5q29 37 43 80t26 126h34q0 -236 6 -329h-34q-8 91 -38 91q-11 0 -30 -15q-55 -46 -115 -71.5t-143 -25.5q-142 0 -251 55t-170 160t-61 251z" />
<glyph unicode="&#x442;" horiz-adv-x="970" d="M42 909q130 -5 439 -5q316 0 448 5q-11 -121 -11 -203q0 -77 5 -132h-35q-21 113 -50 178t-74.5 94t-117.5 29h-47v-701q0 -62 12 -91t42.5 -40t96.5 -13v-30q-81 4 -269 4q-189 0 -261 -4v30q66 2 96.5 13t42.5 40t12 91v701h-47q-71 0 -117 -29t-75 -94t-50 -178h-34 q5 47 5 132q0 93 -11 203z" />
<glyph unicode="&#x443;" horiz-adv-x="935" d="M1 879v30q68 -5 200 -5q141 0 237 5v-30q-82 -6 -82 -55q0 -27 27 -68l220 -350l118 206q62 109 62 174q0 87 -113 93v30q101 -5 169 -5q65 0 115 5v-30q-31 -13 -62 -50.5t-73 -109.5l-260 -451l-84 -145q-41 -71 -73 -102q-46 -42 -125 -42q-50 0 -87 16t-57.5 45 t-20.5 66q0 32 17 58.5t48 41.5t73 15q54 0 88 -25.5t34 -71.5q0 -39 -27 -67.5t-71 -41.5q8 -6 27 -6q43 0 75 27.5t66 87.5l41 72l-383 592q-27 43 -53 66t-46 25z" />
<glyph unicode="&#x444;" horiz-adv-x="1302" d="M27 462q0 101 59.5 177t173 122.5t272.5 59.5v34q0 56 -8.5 81.5t-31 35t-72.5 12.5v30q71 -5 232 -5q147 0 221 5v-30q-51 -3 -73.5 -12.5t-30.5 -34.5t-8 -82v-33q250 -16 382 -107t132 -253q0 -106 -60.5 -186t-176 -128t-277.5 -60v-34q0 -57 8 -82t30.5 -34.5 t73.5 -11.5v-30q-79 4 -221 4q-156 0 -232 -4v30q51 2 73.5 11.5t30.5 34.5t8 82v34q-245 19 -375 113.5t-130 260.5zM266 466q0 -158 65.5 -242.5t200.5 -108.5v681q-140 -21 -203 -101t-63 -229zM761 112q145 20 210 103.5t65 242.5q0 155 -67 236t-208 102v-684z" />
<glyph unicode="&#x445;" horiz-adv-x="962" d="M12 879v31q152 -6 193 -6q59 0 237 6v-31q-48 0 -70 -5.5t-22 -19.5q0 -10 11 -25l191 -268l94 116q56 67 56 121q0 35 -25.5 56.5t-72.5 24.5v30q85 -5 187 -5q85 0 127 5v-30q-38 -12 -81.5 -45t-81.5 -78l-183 -223l304 -427q30 -42 48 -57t45 -18v-31q-143 6 -193 6 q-51 0 -238 -6v31q49 0 71.5 5.5t22.5 19.5q0 10 -12 26l-210 295l-120 -149q-51 -60 -51 -109q0 -39 34 -62.5t92 -26.5v-30q-85 4 -223 4q-73 0 -127 -4v30q45 18 98.5 61t90.5 87l185 228l-285 398q-21 31 -33.5 45.5t-26 21t-32.5 8.5z" />
<glyph unicode="&#x446;" horiz-adv-x="1185" d="M51 0v30q50 2 73 11.5t31 35t8 81.5v592q0 57 -8.5 82.5t-31 35t-72.5 11.5v30q72 -5 218 -5q151 0 235 5v-30q-51 -2 -73.5 -11.5t-30.5 -35t-8 -82.5v-592q0 -56 8.5 -82.5t31.5 -36t72 -9.5h160q49 0 72 9.5t31.5 35.5t8.5 83v592q0 57 -8.5 82.5t-31 35t-72.5 11.5 v30q83 -5 235 -5q148 0 218 5v-30q-51 -2 -73.5 -11.5t-31 -35t-8.5 -82.5v-592q0 -56 9 -82.5t32 -36t72 -9.5h46q-10 -110 -10 -194q0 -62 4 -97h-34q-16 97 -48.5 154t-83 82t-122.5 25h-283q-70 0 -173 2t-144 2q-146 0 -218 -4z" />
<glyph unicode="&#x447;" horiz-adv-x="1104" d="M15 879v30q72 -5 230 -5q141 0 211 5v-30q-44 -2 -65.5 -11.5t-29.5 -34t-8 -75.5v-206q0 -64 11 -99.5t44.5 -54t99.5 -18.5q58 0 112.5 11t92.5 31v328q0 57 -8.5 82.5t-31 35t-72.5 11.5v30q76 -5 236 -5q138 0 217 5v-30q-51 -2 -73.5 -11.5t-30.5 -35t-8 -82.5v-592 q0 -56 8 -81.5t31 -35t73 -11.5v-30q-188 4 -229 4q-88 0 -272 -4v33q70 1 102.5 10.5t45 36.5t12.5 87v226q-47 -24 -122.5 -42.5t-156.5 -18.5q-135 0 -220 52q-50 32 -70 80t-20 129v165q0 51 -9 75.5t-31.5 34t-68.5 11.5z" />
<glyph unicode="&#x448;" horiz-adv-x="1602" d="M51 0v30q50 2 72.5 11.5t31 35t8.5 81.5v592q0 57 -8.5 82.5t-31 35t-72.5 11.5v30q75 -5 236 -5q130 0 202 5v-30q-44 -2 -63 -11.5t-26.5 -35t-7.5 -82.5v-592q0 -56 9 -82.5t34 -36t77 -9.5h54q53 0 78 9.5t34.5 36t9.5 82.5v592q0 57 -7.5 82.5t-27 35t-62.5 11.5v30 q74 -5 211 -5q142 0 212 5v-30q-45 -2 -64.5 -11.5t-26.5 -35t-7 -82.5v-592q0 -55 10.5 -81.5t35.5 -36.5t75 -10h53q52 0 77.5 9.5t34.5 36t9 82.5v592q0 57 -7 82.5t-26.5 35t-63.5 11.5v30q75 -5 211 -5q153 0 227 5v-30q-51 -2 -73.5 -11.5t-30.5 -35t-8 -82.5v-592 q0 -56 8 -81.5t31 -35t73 -11.5v-30q-72 4 -218 4q-54 0 -146 -2t-122 -2q-33 0 -123 2t-133 2q-45 0 -138.5 -2t-132.5 -2q-30 0 -120.5 2t-140.5 2q-153 0 -227 -4z" />
<glyph unicode="&#x449;" horiz-adv-x="1619" d="M51 0v30q50 2 72.5 11.5t31 35t8.5 81.5v592q0 57 -8.5 82.5t-31 35t-72.5 11.5v30q75 -5 236 -5q130 0 202 5v-30q-44 -2 -63 -11.5t-26.5 -35t-7.5 -82.5v-592q0 -56 9 -82.5t34 -36t77 -9.5h54q53 0 78 9.5t34.5 36t9.5 82.5v592q0 57 -7.5 82.5t-27 35t-62.5 11.5v30 q74 -5 211 -5q142 0 212 5v-30q-45 -2 -64.5 -11.5t-26.5 -35t-7 -82.5v-592q0 -55 10.5 -81.5t35.5 -36.5t75 -10h53q52 0 77.5 9.5t34.5 36t9 82.5v592q0 57 -7 82.5t-26.5 35t-63.5 11.5v30q75 -5 211 -5q153 0 227 5v-30q-51 -2 -73.5 -11.5t-30.5 -35t-8 -82.5v-592 q0 -56 8.5 -82.5t31.5 -36t72 -9.5h45q-11 -110 -11 -194q0 -62 5 -97h-35q-14 97 -47 154t-83.5 82t-123.5 25h-236q-33 0 -123 2t-133 2q-45 0 -138.5 -2t-132.5 -2q-30 0 -120.5 2t-140.5 2q-153 0 -227 -4z" />
<glyph unicode="&#x44a;" horiz-adv-x="1142" d="M42 909q186 -5 436 -5q164 0 253 5v-30q-54 -2 -78 -11.5t-33.5 -35t-9.5 -82.5v-227h70q235 0 331 -68t96 -183q0 -271 -391 -271q-30 0 -107.5 1.5t-139.5 1.5q-132 0 -200 -4v30q50 2 72.5 11.5t31 35t8.5 81.5v717h-46q-104 0 -167.5 -70.5t-85.5 -230.5h-34 q5 49 5 122q0 96 -11 213zM610 158q0 -54 6.5 -80.5t24.5 -37t55 -10.5q92 0 131.5 57.5t39.5 172.5q0 108 -43.5 170.5t-158.5 62.5h-55v-335z" />
<glyph unicode="&#x44b;" horiz-adv-x="1478" d="M51 0v30q50 2 72.5 11.5t31 35t8.5 81.5v592q0 57 -8 82.5t-30.5 35t-73.5 11.5v30q69 -5 209 -5q166 0 252 5v-30q-54 -2 -78 -11.5t-33 -35t-9 -82.5v-227h70q235 0 330.5 -68t95.5 -183q0 -271 -390 -271q-30 0 -106.5 1.5t-140.5 1.5q-131 0 -200 -4zM392 158 q0 -53 7 -80t25 -37.5t54 -10.5q91 0 131 57.5t40 172.5q0 109 -43 171t-159 62h-55v-335zM975 0v30q50 2 73 11.5t31 35t8 81.5v592q0 57 -8.5 82.5t-31 35t-72.5 11.5v30q73 -5 232 -5q146 0 221 5v-30q-51 -2 -73.5 -11.5t-30.5 -35t-8 -82.5v-592q0 -56 8 -81.5 t30.5 -35t73.5 -11.5v-30q-75 4 -221 4q-158 0 -232 -4z" />
<glyph unicode="&#x44c;" horiz-adv-x="924" d="M51 0v30q50 2 72.5 11.5t31 35t8.5 81.5v592q0 57 -8 82.5t-30.5 35t-73.5 11.5v30q69 -5 209 -5q166 0 252 5v-30q-54 -2 -78 -11.5t-33 -35t-9 -82.5v-227h70q235 0 330.5 -68t95.5 -183q0 -271 -390 -271q-30 0 -106.5 1.5t-140.5 1.5q-131 0 -200 -4zM392 158 q0 -53 7 -80t25 -37.5t54 -10.5q91 0 131 57.5t40 172.5q0 109 -43 171t-159 62h-55v-335z" />
<glyph unicode="&#x44d;" horiz-adv-x="989" d="M85 0q6 84 6 293h35q9 -59 25 -98.5t43 -73.5q40 -48 96.5 -75.5t117.5 -27.5q79 0 142.5 50.5t100.5 150t37 240.5q0 29 -2 57q-19 -60 -50.5 -101t-70 -60.5t-77.5 -19.5q-38 0 -68.5 13.5t-89 51t-106.5 37.5q-29 0 -58 -18t-42 -57l-25 7q13 70 44 119t72 73.5 t86 24.5q36 0 64 -12.5t82.5 -50.5t105.5 -38q38 0 74 17.5t56 53.5q-11 104 -45 179.5t-87.5 115.5t-121.5 40q-58 0 -117 -28.5t-101 -76.5q-31 -36 -47 -76.5t-28 -114.5h-35q0 224 -5 314h34q4 -47 13 -68.5t24 -21.5q13 0 30 14q40 31 73 51t79.5 33t108.5 13 q133 0 240 -57.5t168 -165.5t61 -251q0 -145 -61 -253t-169.5 -166t-248.5 -58q-61 0 -107 12.5t-80 33t-74 51.5q-18 14 -31 14q-15 0 -23.5 -21.5t-12.5 -68.5h-35z" />
<glyph unicode="&#x44e;" horiz-adv-x="1541" d="M51 0v30q50 2 73 11.5t31 35t8 81.5v592q0 57 -8.5 82.5t-31 35t-72.5 11.5v30q73 -5 232 -5q146 0 221 5v-30q-51 -2 -73.5 -11.5t-30.5 -35t-8 -82.5v-272h166q8 134 68 237t162 159t230 56q138 0 241.5 -55t160.5 -160t57 -251q0 -144 -59 -253.5t-163.5 -170.5 t-237.5 -61q-138 0 -241.5 55t-160.5 160t-57 251v3h-166v-290q0 -56 8 -81.5t30.5 -35t73.5 -11.5v-30q-75 4 -221 4q-158 0 -232 -4zM797 451q0 -133 30.5 -234t82 -156t113.5 -55q65 0 113.5 57t75 160t26.5 235q0 133 -30.5 234t-82 156t-113.5 55q-65 0 -113.5 -57.5 t-75 -160t-26.5 -234.5z" />
<glyph unicode="&#x44f;" horiz-adv-x="1001" d="M-21 61l20 20q30 -33 61 -33q25 0 39.5 18.5t23.5 61.5l25 116q12 60 45.5 97t87.5 57.5t134 30.5l4 1q-161 14 -233 77.5t-72 157.5q0 119 91 180.5t299 61.5q28 0 105.5 -1.5t140.5 -1.5q131 0 201 5v-30q-51 -2 -73.5 -11.5t-30.5 -35t-8 -82.5v-592q0 -56 8 -81.5 t30.5 -35t73.5 -11.5v-30q-70 4 -209 4q-165 0 -253 -4v30q54 2 78.5 11.5t33.5 35t9 81.5v262h-79q-62 0 -95.5 -44.5t-51.5 -137.5l-23 -117q-14 -73 -63 -107.5t-137 -34.5q-116 0 -182 82zM353 666q0 -100 43 -157.5t159 -57.5h55v299q0 54 -7 81t-25 37.5t-55 10.5 q-91 0 -130.5 -52.5t-39.5 -160.5z" />
<glyph unicode="&#x451;" horiz-adv-x="910" d="M51 0v30q50 2 73 11.5t31 35t8 81.5v592q0 57 -8.5 82.5t-31 35t-72.5 11.5v30q156 -5 464 -5q208 0 297 5q-10 -100 -10 -180q0 -58 4 -92h-34q-16 87 -46 139.5t-75.5 75.5t-109.5 23h-55q-39 0 -58 -7t-27.5 -27t-8.5 -64v-305h70q69 0 104 48.5t47 113.5h35 q-6 -59 -6 -116l1 -60q0 -67 9 -177h-34q-11 71 -47.5 116t-108.5 45h-70v-311q0 -43 8.5 -63t27.5 -27t58 -7h64q71 0 121 26t82 85t49 157h34q-5 -42 -5 -108q0 -86 11 -194q-97 4 -327 4q-308 0 -464 -4zM162 1157q0 29 15.5 55.5t41 42.5t55.5 16q29 0 55.5 -16 t42.5 -42.5t16 -55.5q0 -30 -16 -55.5t-42.5 -41t-55.5 -15.5q-30 0 -56 15t-41 41t-15 56zM519 1157q0 30 15.5 56.5t41.5 42t57 15.5q29 0 55 -16t41.5 -42.5t15.5 -55.5q0 -30 -15.5 -56t-41.5 -41t-55 -15q-31 0 -57 15t-41.5 41t-15.5 56z" />
<glyph unicode="&#x452;" horiz-adv-x="1309" d="M43 909q129 -5 440 -5q314 0 447 5q-10 -113 -10 -203q0 -85 4 -132h-34q-22 113 -51.5 178t-75 94t-115.5 29h-47v-468q55 44 136 72t181 28t182.5 -31t131.5 -91.5t49 -146.5q0 -84 -49 -142.5t-130 -87.5t-178 -29q-63 0 -120.5 19.5t-94 60t-36.5 99.5q0 37 17 64.5 t46 42.5t66 15q51 0 82.5 -30.5t31.5 -82.5q0 -97 -114 -131q13 -10 39 -18t50 -8q45 0 82 27t59 77t22 116q0 106 -52.5 167.5t-165.5 61.5q-68 0 -135 -24t-100 -60v-388q-82 20 -209 20q-92 0 -180 -4v30q71 1 103 10.5t44.5 38.5t12.5 92v701h-46q-72 0 -117.5 -29 t-75 -94t-49.5 -178h-34q4 47 4 132q0 93 -11 203z" />
<glyph unicode="&#x453;" horiz-adv-x="823" d="M51 0v30q50 2 73 11.5t31 35t8 81.5v592q0 57 -8 82.5t-30.5 35t-73.5 11.5v30q206 -5 226 -5q57 0 130.5 1.5t112.5 1.5q178 0 262 2q-10 -122 -10 -218q0 -73 4 -123h-34q-16 114 -47 180.5t-80 96.5t-122 30h-15q-35 0 -53 -7t-25.5 -28t-7.5 -64v-609q0 -56 14 -84 t47 -39.5t99 -13.5v-30q-92 4 -265 4q-160 0 -236 -4zM281 1050q48 38 80.5 70.5t80.5 84t82 69.5q22 12 45 12t44 -12t32 -33q8 -18 8 -34q0 -23 -13 -43.5t-37 -33.5q-34 -18 -88.5 -32t-104 -27t-118.5 -40z" />
<glyph unicode="&#x454;" horiz-adv-x="989" d="M64 445q0 143 62.5 253t171.5 171t244 61q61 0 106.5 -13t77 -33t68.5 -51q18 -15 29 -15q30 0 38 91h35q-6 -80 -6 -278h-35q-10 43 -20 69t-22 44.5t-33 43.5q-41 49 -94 76t-111 27q-82 0 -143.5 -53t-94.5 -152t-33 -235v-36q27 86 78.5 131t110.5 45 q36 0 65.5 -13.5t86.5 -51t101 -37.5q33 0 64.5 18.5t44.5 56.5l27 -6q-14 -71 -44.5 -120t-71.5 -74t-89 -25q-35 0 -63 13.5t-82.5 51t-100.5 37.5q-37 0 -70.5 -17t-53.5 -51q11 -113 49.5 -193t98 -121t131.5 -41q59 0 115 27.5t96 77.5q29 37 43 80t26 126h34 q0 -236 6 -329h-34q-8 91 -38 91q-11 0 -30 -15q-55 -46 -115 -71.5t-143 -25.5q-142 0 -251 55t-170 160t-61 251z" />
<glyph unicode="&#x455;" horiz-adv-x="864" d="M81 -10q6 84 6 364h34q10 -159 85.5 -250t213.5 -91q43 0 81 14.5t61.5 45.5t23.5 77q0 41 -23 74.5t-64 63.5t-118 74q-92 52 -153.5 97.5t-100.5 102.5t-39 126q0 78 45 132.5t123 82t176 27.5q69 0 117.5 -15t92.5 -40q21 -13 31 -17.5t19 -4.5q14 0 21 16t12 51h34 q-7 -90 -7 -311h-34q-16 134 -86.5 211t-184.5 77q-50 0 -87.5 -15t-58 -41.5t-20.5 -61.5q0 -45 29 -80t69.5 -62t142.5 -88q89 -50 146.5 -92t94.5 -97.5t37 -126.5q0 -82 -47 -139.5t-130.5 -86t-191.5 -28.5q-73 0 -124.5 16t-106.5 42q-36 18 -52 18q-14 0 -21 -15.5 t-12 -49.5h-34z" />
<glyph unicode="&#x456;" horiz-adv-x="554" d="M51 0v30q50 2 73 11.5t31 35t8 81.5v592q0 57 -8.5 82.5t-31 35t-72.5 11.5v30q73 -5 232 -5q146 0 221 5v-30q-51 -2 -73.5 -11.5t-30.5 -35t-8 -82.5v-592q0 -56 8 -81.5t30.5 -35t73.5 -11.5v-30q-75 4 -221 4q-158 0 -232 -4z" />
<glyph unicode="&#x457;" horiz-adv-x="554" d="M-13 1157q0 29 15.5 55.5t41 42.5t55.5 16q29 0 55.5 -16t42.5 -42.5t16 -55.5q0 -30 -16 -55.5t-42.5 -41t-55.5 -15.5q-30 0 -56 15t-41 41t-15 56zM51 0v30q50 2 73 11.5t31 35t8 81.5v592q0 57 -8.5 82.5t-31 35t-72.5 11.5v30q73 -5 232 -5q146 0 221 5v-30 q-51 -2 -73.5 -11.5t-30.5 -35t-8 -82.5v-592q0 -56 8 -81.5t30.5 -35t73.5 -11.5v-30q-75 4 -221 4q-158 0 -232 -4zM344 1157q0 30 15.5 56.5t41.5 42t57 15.5q29 0 55 -16t41.5 -42.5t15.5 -55.5q0 -30 -15.5 -56t-41.5 -41t-55 -15q-31 0 -57 15t-41.5 41t-15.5 56z" />
<glyph unicode="&#x458;" horiz-adv-x="535" d="M-201 -157q0 44 32 70.5t84 26.5q50 0 80.5 -25t30.5 -69q0 -29 -17.5 -54.5t-50.5 -39.5q21 -3 41 -3q74 0 115 77q22 36 31 96t9 175v653q0 57 -8.5 82.5t-31 35t-72.5 11.5v30q72 -5 218 -5q152 0 235 5v-30q-51 -2 -73.5 -11.5t-30.5 -35t-8 -82.5v-397v-67 q0 -106 -5 -186.5t-21 -136.5q-20 -70 -68 -125t-122 -86.5t-167 -31.5q-91 0 -141 27q-60 31 -60 96z" />
<glyph unicode="&#x459;" horiz-adv-x="1426" d="M-10 118q0 38 18 67t48.5 44.5t67.5 15.5q50 0 80.5 -24.5t30.5 -67.5q0 -52 -33 -88t-85 -50q14 -8 36 -8q106 0 162.5 106.5t77.5 251.5t38 385q1 24 1 33q0 39 -11 58.5t-36.5 27.5t-74.5 10v30q38 -3 145 -3q17 0 50 1.5t57 1.5q58 0 122 -2.5t95 -2.5q147 0 223 5 v-30q-52 -2 -74 -11.5t-30 -35t-8 -82.5v-227h70q235 0 330.5 -68t95.5 -183q0 -132 -95 -202t-285 -70h-4h-1l-27 1q-77 3 -192 3q-157 0 -233 -4v30q50 2 73 11.5t31 35t8 81.5v592q0 58 -6.5 84.5t-24.5 35.5t-58 9h-19q-38 0 -55 -10t-23 -34.5t-10 -84.5 q-4 -40 -23.5 -272.5t-89 -365.5t-199.5 -133q-45 0 -82 17.5t-59 49t-22 72.5zM890 158q0 -55 7.5 -80.5t29.5 -35t70 -12.5q78 4 114 62t36 168q0 109 -43 171t-159 62h-55v-335z" />
<glyph unicode="&#x45a;" horiz-adv-x="1522" d="M51 0v30q50 2 73 11.5t31 35t8 81.5v592q0 57 -8.5 82.5t-31 35t-72.5 11.5v30q73 -5 232 -5q146 0 221 5v-30q-51 -2 -73.5 -11.5t-30.5 -35t-8 -82.5v-254h367v254q0 57 -8 82.5t-30 35t-73 11.5v30q68 -5 213 -5q161 0 249 5v-30q-54 -2 -78.5 -11.5t-34 -35 t-9.5 -82.5v-254h70q164 0 258 -31t131.5 -84t37.5 -127q0 -124 -96.5 -188.5t-289.5 -64.5q-35 0 -112 1.5t-138 1.5q-132 0 -201 -4v30q49 2 71.5 11.5t31 35t8.5 81.5v308h-367v-308q0 -56 8 -81.5t30.5 -35t73.5 -11.5v-30q-75 4 -221 4q-158 0 -232 -4zM988 158 q0 -51 7 -78t24.5 -38.5t52.5 -11.5q93 0 133 54t40 163q0 69 -16 116.5t-61 75t-124 27.5h-56v-308z" />
<glyph unicode="&#x45b;" horiz-adv-x="910" d="M20 909v30h557v-30h-557zM53 0v30q50 2 72.5 11.5t30.5 35t8 81.5v592q0 57 -8.5 82.5t-30.5 35t-72 11.5v30q71 -5 218 -5q151 0 234 5v-30q-51 -2 -73 -11.5t-30.5 -35t-8.5 -82.5v-272h384v272q0 57 -8 82.5t-31 35t-73 11.5v30q83 -5 235 -5q148 0 218 5v-30 q-51 -2 -73 -11.5t-30.5 -35t-8.5 -82.5v-592q0 -56 8.5 -81.5t31.5 -35t72 -11.5v-30q-70 4 -218 4q-152 0 -235 -4v30q50 2 73 11.5t31 35t8 81.5v290h-384v-290q0 -56 8.5 -81.5t31.5 -35t72 -11.5v-30q-83 4 -234 4q-147 0 -218 -4z" />
<glyph unicode="&#x45c;" horiz-adv-x="1058" d="M51 0v30q50 2 73 11.5t31 35t8 81.5v592q0 57 -8.5 82.5t-31 35t-72.5 11.5v30q73 -5 232 -5q145 0 221 5v-30q-51 -2 -73.5 -11.5t-30.5 -35t-8 -82.5v-258l25 -1q105 10 145 61.5t64 134t36 112.5q24 62 67 96.5t101 34.5q40 0 75 -14t57 -44t22 -75q0 -58 -38.5 -92.5 t-99.5 -34.5q-52 0 -82 29.5t-30 79.5q0 39 27 67.5t68 36.5q-11 5 -22 5q-3 0 -19 -2q-34 -6 -57 -31t-42 -75q-9 -25 -34.5 -104t-58 -123t-88.5 -65q134 -8 224.5 -49.5t117.5 -144.5l35 -137q11 -44 21.5 -67t22 -31.5t28.5 -8.5q18 0 31.5 8.5t28.5 25.5l20 -18 q-36 -46 -83 -66.5t-111 -20.5q-55 0 -94 13.5t-66 49t-41 99.5l-40 173q-11 50 -27 81t-50.5 50.5t-96.5 19.5h-36v-307q0 -56 8 -81.5t30.5 -35t73.5 -11.5v-30q-76 4 -221 4q-159 0 -232 -4zM420 1050q47 38 79.5 70.5t80.5 84t82 69.5q22 12 45 12q24 0 44.5 -12 t31.5 -33q8 -18 8 -34q0 -23 -12.5 -43.5t-37.5 -33.5q-34 -18 -88.5 -32t-104 -27t-118.5 -40z" />
<glyph unicode="&#x45e;" horiz-adv-x="935" d="M1 879v30q68 -5 200 -5q141 0 237 5v-30q-82 -6 -82 -55q0 -27 27 -68l220 -350l118 206q62 109 62 174q0 87 -113 93v30q101 -5 169 -5q65 0 115 5v-30q-31 -13 -62 -50.5t-73 -109.5l-260 -451l-84 -145q-41 -71 -73 -102q-46 -42 -125 -42q-50 0 -87 16t-57.5 45 t-20.5 66q0 32 17 58.5t48 41.5t73 15q54 0 88 -25.5t34 -71.5q0 -39 -27 -67.5t-71 -41.5q8 -6 27 -6q43 0 75 27.5t66 87.5l41 72l-383 592q-27 43 -53 66t-46 25zM143 1194q0 28 15 50.5t42 36t61 13.5q52 0 86.5 -28.5t34.5 -72.5q0 -37 -25.5 -62t-66.5 -35 q74 -35 204 -35q132 0 204 36q-41 10 -65.5 34.5t-24.5 61.5q0 28 15.5 51t43.5 36.5t62 13.5t61 -13t42 -35.5t15 -51.5q0 -65 -89 -110q-100 -53 -264 -53q-163 0 -263 53q-88 43 -88 110z" />
<glyph unicode="&#x45f;" horiz-adv-x="1167" d="M51 0v30q50 2 73 11.5t31 35t8 81.5v592q0 57 -8.5 82.5t-31 35t-72.5 11.5v30q72 -5 218 -5q151 0 235 5v-30q-51 -2 -73.5 -11.5t-30.5 -35t-8 -82.5v-592q0 -56 8.5 -82.5t31.5 -36t72 -9.5h160q49 0 72 9.5t31.5 35.5t8.5 83v592q0 57 -8.5 82.5t-31 35t-72.5 11.5 v30q83 -5 235 -5q148 0 218 5v-30q-51 -2 -73.5 -11.5t-31 -35t-8.5 -82.5v-592q0 -56 8.5 -81.5t31.5 -35t73 -11.5v-30q-70 4 -218 4h-77q-93 -7 -148.5 -69.5t-69.5 -195.5h-35q-13 133 -68 195t-147 70h-85q-146 0 -218 -4z" />
<glyph unicode="&#x490;" horiz-adv-x="824" d="M51 0v30q50 2 72.5 11.5t31 35t8.5 81.5v742q0 56 -8.5 81.5t-31 35t-72.5 12.5v29q158 -5 248 -5q38 0 109 2.5t94 2.5q105 0 173 61t91 176h34q-4 -38 -4 -102q0 -95 10 -172q-85 3 -284 3q-54 0 -78.5 -8.5t-33.5 -34t-9 -81.5v-742q0 -56 9.5 -81.5t36.5 -35 t87 -11.5v-30q-88 4 -247 4q-160 0 -236 -4z" />
<glyph unicode="&#x491;" horiz-adv-x="781" d="M51 0v30q50 2 73 11.5t31 35t8 81.5v592q0 57 -8 82.5t-30.5 35t-73.5 11.5v30q110 -5 230 -5q133 0 212 11q95 12 149.5 68.5t73.5 161.5h34q-4 -38 -4 -101q0 -96 10 -172q-79 3 -270 3q-39 0 -58 -8.5t-27.5 -32.5t-8.5 -75v-592q0 -56 14 -84t47 -39.5t99 -13.5v-30 q-92 4 -265 4q-160 0 -236 -4z" />
<glyph unicode="&#x2000;" horiz-adv-x="706" />
<glyph unicode="&#x2001;" horiz-adv-x="1413" />
<glyph unicode="&#x2002;" horiz-adv-x="706" />
<glyph unicode="&#x2003;" horiz-adv-x="1413" />
<glyph unicode="&#x2004;" horiz-adv-x="471" />
<glyph unicode="&#x2005;" horiz-adv-x="353" />
<glyph unicode="&#x2006;" horiz-adv-x="235" />
<glyph unicode="&#x2007;" horiz-adv-x="235" />
<glyph unicode="&#x2008;" horiz-adv-x="176" />
<glyph unicode="&#x2009;" horiz-adv-x="282" />
<glyph unicode="&#x200a;" horiz-adv-x="78" />
<glyph unicode="&#x2010;" d="M90 342v124h539v-124h-539z" />
<glyph unicode="&#x2011;" d="M90 342v124h539v-124h-539z" />
<glyph unicode="&#x2012;" d="M90 342v124h539v-124h-539z" />
<glyph unicode="&#x2013;" horiz-adv-x="900" d="M84 331v147h732v-147h-732z" />
<glyph unicode="&#x2014;" horiz-adv-x="1338" d="M84 331v147h1170v-147h-1170z" />
<glyph unicode="&#x2018;" horiz-adv-x="385" d="M66 848q0 77 39.5 140.5t117.5 99.5l14 -27q-43 -19 -75 -56t-39 -76q-3 -20 -3 -35q0 -17 3 -27q35 35 87 35q53 0 85.5 -30.5t32.5 -84.5q0 -51 -34.5 -83t-87.5 -32q-73 0 -107 52q-15 23 -24 56t-9 68z" />
<glyph unicode="&#x2019;" horiz-adv-x="378" d="M55 963q0 51 34.5 83.5t88.5 32.5q73 0 106 -53q16 -23 24.5 -56t8.5 -68q0 -77 -39.5 -140.5t-117.5 -99.5l-14 27q43 19 75.5 56t38.5 76q4 20 4 35q0 17 -4 28q-34 -36 -87 -36q-52 0 -85 30.5t-33 84.5z" />
<glyph unicode="&#x201a;" horiz-adv-x="405" d="M73 94q0 51 34.5 83.5t88.5 32.5q73 0 106 -53q16 -23 24.5 -56t8.5 -68q0 -77 -39.5 -140.5t-117.5 -99.5l-14 27q43 19 75.5 56t38.5 76q4 20 4 35q0 17 -4 28q-34 -36 -87 -36q-52 0 -85 30.5t-33 84.5z" />
<glyph unicode="&#x201c;" horiz-adv-x="693" d="M66 848q0 76 39.5 139.5t117.5 99.5l14 -27q-43 -18 -75 -55.5t-39 -75.5q-3 -21 -3 -35q0 -17 3 -28q35 36 87 36q53 0 85.5 -31t32.5 -85q0 -51 -34.5 -83t-87.5 -32q-73 0 -107 52q-15 23 -24 56t-9 69zM374 848q0 76 39.5 139.5t117.5 99.5l14 -27q-43 -18 -75 -55.5 t-39 -75.5q-3 -21 -3 -35q0 -17 3 -28q35 36 87 36q53 0 86 -31t33 -85q0 -51 -35 -83t-88 -32q-73 0 -107 52q-15 23 -24 56t-9 69z" />
<glyph unicode="&#x201d;" horiz-adv-x="686" d="M55 963q0 51 34.5 83.5t88.5 32.5q73 0 106 -53q16 -23 24.5 -56t8.5 -68q0 -77 -39.5 -140.5t-117.5 -99.5l-14 27q43 19 75.5 56t38.5 76q4 20 4 35q0 17 -4 28q-34 -36 -87 -36q-52 0 -85 30.5t-33 84.5zM363 963q0 51 34.5 83.5t88.5 32.5q73 0 106 -53 q16 -23 24.5 -56t8.5 -68q0 -77 -39.5 -140.5t-117.5 -99.5l-14 27q43 19 75.5 56t38.5 76q4 20 4 35q0 17 -4 28q-34 -36 -87 -36q-52 0 -85 30.5t-33 84.5z" />
<glyph unicode="&#x201e;" horiz-adv-x="713" d="M73 94q0 51 34.5 83.5t88.5 32.5q73 0 106 -53q16 -23 24.5 -56t8.5 -68q0 -77 -39.5 -140.5t-117.5 -99.5l-14 27q43 19 75.5 56t38.5 76q4 20 4 35q0 17 -4 28q-34 -36 -87 -36q-52 0 -85 30.5t-33 84.5zM381 94q0 51 34.5 83.5t88.5 32.5q73 0 106 -53 q16 -23 24.5 -56t8.5 -68q0 -77 -39.5 -140.5t-117.5 -99.5l-14 27q43 19 75.5 56t38.5 76q4 20 4 35q0 17 -4 28q-34 -36 -87 -36q-52 0 -85 30.5t-33 84.5z" />
<glyph unicode="&#x2022;" horiz-adv-x="724" d="M111 402q0 69 33.5 127t91 92t126.5 34t127 -34t92 -92t34 -127q0 -68 -34 -126t-92 -91.5t-127 -33.5t-126.5 33.5t-91 91.5t-33.5 126z" />
<glyph unicode="&#x2026;" horiz-adv-x="1241" d="M74 94q0 53 34.5 84.5t92.5 31.5q60 0 94 -31.5t34 -84.5t-34 -84t-94 -31q-58 0 -92.5 31t-34.5 84zM494 94q0 53 34.5 84.5t92.5 31.5q60 0 94 -31.5t34 -84.5t-34 -84t-94 -31q-58 0 -92.5 31t-34.5 84zM913 94q0 53 34.5 84.5t92.5 31.5q60 0 94 -31.5t34 -84.5 t-34 -84t-94 -31q-58 0 -92.5 31t-34.5 84z" />
<glyph unicode="&#x202f;" horiz-adv-x="282" />
<glyph unicode="&#x2039;" horiz-adv-x="540" d="M39 377v19q120 75 219.5 173.5t192.5 227.5l23 -9q-35 -116 -93.5 -226.5t-119.5 -173.5q60 -61 119 -173.5t94 -229.5l-23 -8q-93 129 -192 227t-220 173z" />
<glyph unicode="&#x203a;" horiz-adv-x="540" d="M69 -15q35 117 93 227.5t118 171.5q-60 61 -118 173t-93 231l22 9q94 -128 193 -227t218 -174v-19q-119 -75 -218 -173.5t-193 -226.5z" />
<glyph unicode="&#x205f;" horiz-adv-x="353" />
<glyph unicode="&#x20ac;" horiz-adv-x="955" d="M46 444v30h109q-1 22 -1 46q0 38 3 73h-111v30h115q17 137 78.5 240.5t156.5 160t208 56.5q127 0 206 -49q73 -47 73 -108q0 -46 -32.5 -74t-86.5 -28q-52 0 -83 25.5t-31 73.5q0 33 23 61.5t60 41.5q-42 30 -113 30q-67 0 -117 -51.5t-79.5 -148t-36.5 -230.5h311 l-16 -30h-297q-1 -32 -1 -67l1 -52h230l-19 -30h-211q19 -438 235 -438q36 0 65 8.5t46 21.5q-37 12 -59 41t-22 62q0 47 31 73t83 26q53 0 86 -28t33 -74q0 -33 -20 -62t-54 -47q-92 -48 -207 -48q-125 0 -221 54.5t-154 159.5t-70 251h-111z" />
<glyph unicode="&#x2122;" horiz-adv-x="1611" d="M96 1058q85 -4 289 -4t290 4q-11 -75 -11 -140q0 -48 4 -78h-34q-11 97 -42 140.5t-72 43.5h-54v-447q0 -43 8 -62t28.5 -26.5t69.5 -10.5v-30q-83 5 -187 5q-113 0 -188 -5v30q49 3 70 10.5t29 26.5t8 62v447h-54q-41 0 -72 -43.5t-42 -140.5h-35q5 28 5 78 q0 63 -10 140zM742 448v30q35 3 50 9t20.5 22t5.5 53v383q0 37 -5.5 53.5t-20.5 22t-50 8.5v29q49 -4 148 -4q52 0 101 4l153 -375l140 371h97q91 0 143 4v-29q-36 -3 -51 -8.5t-20.5 -22t-5.5 -53.5v-383q0 -37 5.5 -53t20.5 -22t51 -9v-30q-71 5 -157 5q-87 0 -144 -5v30 q27 3 39.5 9t17 22.5t4.5 52.5v398l-196 -519h-24l-212 522v-401q0 -36 4.5 -52.5t16.5 -22.5t40 -9v-30q-36 5 -77 5q-55 0 -94 -5z" />
<glyph unicode="&#x25fc;" horiz-adv-x="908" d="M0 0v909h909v-909h-909z" />
</font>
</defs>
</svg>
